<?xml version="1.0" encoding="UTF-8" standalone="no"?>
<!-- Created with Inkscape (http://www.inkscape.org/) -->

<svg
   version="1.1"
   id="svg2"
   width="1818"
   height="703"
   viewBox="0 0 1817.9999 702.99997"
   sodipodi:docname="easter.svg"
   inkscape:version="1.2.1 (9c6d41e410, 2022-07-14)"
   xmlns:inkscape="http://www.inkscape.org/namespaces/inkscape"
   xmlns:sodipodi="http://sodipodi.sourceforge.net/DTD/sodipodi-0.dtd"
   xmlns="http://www.w3.org/2000/svg"
   xmlns:svg="http://www.w3.org/2000/svg">
  <defs
     id="defs6" />
  <sodipodi:namedview
     id="namedview4"
     pagecolor="#8a8a8a"
     bordercolor="#000000"
     borderopacity="0.25"
     inkscape:showpageshadow="2"
     inkscape:pageopacity="0"
     inkscape:pagecheckerboard="false"
     inkscape:deskcolor="#d1d1d1"
     showgrid="false"
     inkscape:zoom="0.96281243"
     inkscape:cx="943.0705"
     inkscape:cy="378.0591"
     inkscape:window-width="2560"
     inkscape:window-height="1377"
     inkscape:window-x="5112"
     inkscape:window-y="-8"
     inkscape:window-maximized="1"
     inkscape:current-layer="layer16" />
  <g
     inkscape:groupmode="layer"
     id="layer16"
     inkscape:label="16">
    <path
       d="m 456.13074,560.31976 c -2.40193,1.99096 -4.89399,3.68643 -7.30033,4.83012 -0.70569,-0.2511 -1.62809,-0.37992 -2.79127,-0.0901 -0.27592,-2.12041 -1.09036,-4.49438 -3.25247,-5.42021 -2.16262,-0.92603 -4.44322,0.12264 -6.16771,1.38647 -0.59253,-1.04278 -1.32352,-1.62131 -1.99222,-1.9588 -0.83315,-2.53026 -1.32541,-5.50363 -1.54165,-8.61569 5.93806,5.42824 15.0183,9.31643 23.04565,9.86819 z M 434.81682,532.1809 c 7.73284,8.46685 21.87744,14.52359 33.34145,14.27687 -1.7731,3.051 -4.43478,6.49278 -7.50664,9.6658 -9.11429,1.25516 -22.26914,-4.37777 -27.64963,-11.83962 0.17691,-4.41266 0.83091,-8.71411 1.81482,-12.10305 z m 5.45203,-9.34621 c 0.61182,2.84583 1.9179,4.80851 3.8372,5.63036 0,0 0.002,0.002 0.005,0.002 1.37196,0.58747 2.94546,0.55668 4.65003,-0.0755 0.23212,2.9729 1.15964,6.62228 4.16921,7.91099 3.01056,1.28913 6.29173,-0.5581 8.60246,-2.44213 0.71981,1.67026 1.78243,2.82986 3.15245,3.4165 0.002,0.002 0.005,0.002 0.005,0.002 1.83914,0.78752 4.07406,0.43478 6.46854,-0.96167 -0.0898,2.05113 -0.44576,4.05672 -1.05819,5.91914 -11.16473,1.17715 -26.71482,-5.48143 -33.56776,-14.37379 0.96291,-1.79911 2.23767,-3.49975 3.73681,-5.02788 z m 7.66376,-5.28023 c 4.61667,5.79229 14.38022,9.97307 21.75864,9.3171 0.55543,1.48378 0.9405,3.0446 1.18552,4.63053 -2.15655,1.80178 -3.84318,2.32092 -4.57555,2.00732 0,0 0,0 -0.002,-4.1e-4 -0.58909,-0.25224 -1.32565,-1.38143 -1.62754,-3.79283 -0.0986,-0.7991 -0.66793,-1.4653 -1.42324,-1.70251 -0.76751,-0.23956 -1.60375,-0.009 -2.13958,0.59183 -2.72492,3.05264 -5.47813,4.39434 -6.56648,3.92831 -1.08786,-0.46584 -2.01645,-3.38523 -1.68821,-7.46413 0.0643,-0.80115 -0.3452,-1.56674 -1.04865,-1.95589 -0.69527,-0.39484 -1.56834,-0.33422 -2.21528,0.14449 -1.95153,1.44649 -3.27704,1.69268 -3.86857,1.43939 l -0.002,-5.1e-4 c -0.75713,-0.32421 -1.57614,-2.01915 -1.72164,-4.96759 1.24728,-0.84864 2.5634,-1.58963 3.93299,-2.17499 z m 13.05701,-0.42779 c 2.79882,1.19846 5.0088,3.23784 6.65787,5.72957 -5.27206,-0.12536 -11.66955,-2.86478 -15.39759,-6.59326 2.93985,-0.52676 5.94042,-0.33497 8.73972,0.86369 z m -21.00449,49.05277 c -0.65078,-0.27865 -1.24359,-0.67387 -1.79411,-1.15041 1.51113,-1.35748 2.70341,-1.73946 2.98169,-1.6203 0.27731,0.11875 0.8236,1.24403 0.885,3.27487 -0.72619,-0.069 -1.42229,-0.2257 -2.07258,-0.50416 z m -1.61396,3.76915 c 11.70616,5.0126 30.33574,-13.93714 35.11419,-25.08037 4.32854,-10.81861 0.59833,-26.59432 -10.882,-31.51021 -11.47983,-4.91569 -25.43178,3.03502 -30.19882,13.66704 -4.9634,11.06919 -5.73417,37.91322 5.96663,42.92354"
       style="opacity:1;fill:#f6f6f6;fill-opacity:1;fill-rule:nonzero;stroke:none;stroke-width:0.0528303"
       id="path76" />
    <path
       d="m 446.22669,551.60592 c 1.51766,0.64988 3.40981,-0.36802 4.22604,-2.27419 0.81644,-1.90668 0.24732,-3.9785 -1.27035,-4.62837 -1.51766,-0.64987 -3.40932,0.36824 -4.22577,2.27493 -0.81622,1.90617 -0.24758,3.97777 1.27008,4.62763"
       style="opacity:1;fill:#f6f6f6;fill-opacity:1;fill-rule:nonzero;stroke:none;stroke-width:0.0528303"
       id="path78" />
    <path
       d="m 437.61143,545.68703 c 1.51816,0.65008 3.40981,-0.36802 4.22604,-2.27421 0.81645,-1.90667 0.24781,-3.97828 -1.27034,-4.62835 -1.51767,-0.64987 -3.40935,0.36824 -4.22577,2.2749 -0.81624,1.90619 -0.24759,3.9778 1.27007,4.62766"
       style="opacity:1;fill:#f6f6f6;fill-opacity:1;fill-rule:nonzero;stroke:none;stroke-width:0.0528303"
       id="path80" />
    <path
       d="m 456.45569,553.75618 c 1.51767,0.64987 3.40981,-0.36804 4.22604,-2.27421 0.81644,-1.90667 0.24732,-3.97849 -1.27035,-4.62837 -1.51765,-0.64986 -3.40933,0.36825 -4.22576,2.27492 -0.81623,1.90617 -0.24758,3.9778 1.27007,4.62766"
       style="opacity:1;fill:#f6f6f6;fill-opacity:1;fill-rule:nonzero;stroke:none;stroke-width:0.0528303"
       id="path82" />
  </g>
  <g
     inkscape:groupmode="layer"
     id="layer15"
     inkscape:label="15">
    <path
       d="m 1734.715,623.51428 -5.0864,4.26782 c -0.3427,0.28956 -0.8142,0.36932 -1.2341,0.2092 -0.42,-0.16016 -0.7185,-0.53352 -0.7816,-0.97786 l -0.9531,-6.57087 c -0.065,-0.44954 0.1214,-0.89632 0.4837,-1.16756 l 4.8387,-3.6184 c 0.3372,-0.25478 0.7856,-0.31727 1.1809,-0.16652 0.3954,0.15079 0.6874,0.49562 0.7704,0.91062 l 1.2006,5.92135 c 0.088,0.44312 -0.07,0.90081 -0.4165,1.19322 z m -18.232,-6.95245 -5.0874,4.26743 c -0.3428,0.28953 -0.8141,0.36936 -1.2341,0.2092 -0.42,-0.16016 -0.7176,-0.53319 -0.7806,-0.97746 l -0.9531,-6.57087 c -0.066,-0.4499 0.1204,-0.89672 0.4819,-1.16828 l 4.8386,-3.6184 c 0.3383,-0.25438 0.7867,-0.31684 1.1811,-0.16645 0.3953,0.15072 0.6882,0.49591 0.7702,0.91052 l 1.2017,5.92177 c 0.087,0.44277 -0.071,0.90042 -0.4165,1.19322 z m -18.2331,-6.95287 -5.0863,4.26786 c -0.3429,0.28949 -0.8142,0.36932 -1.2342,0.20916 -0.4199,-0.16012 -0.7186,-0.53359 -0.7815,-0.97782 l -0.9532,-6.57091 c -0.065,-0.44953 0.1214,-0.89632 0.4828,-1.16791 l 4.8386,-3.61841 c 0.3382,-0.25441 0.7857,-0.31726 1.1811,-0.16648 0.3954,0.15079 0.6873,0.49559 0.7702,0.91056 l 1.2007,5.92138 c 0.088,0.44312 -0.07,0.90077 -0.4174,1.19286 z m 54.4266,5.49127 -3.1425,1.40584 c -3.9306,1.76228 -8.9956,-0.16697 -10.7575,-4.10433 l -1.4061,-3.136 c -0.5149,-1.15313 -1.8699,-1.6633 -3.0189,-1.15334 l -3.1432,1.40774 c -4.0941,1.83678 -8.9229,-0.005 -10.7544,-4.10101 l -1.4077,-3.14316 c -0.5157,-1.15121 -1.8686,-1.6671 -3.0198,-1.15154 l -3.1431,1.40777 c -4.0942,1.83678 -8.9229,-0.005 -10.7544,-4.101 l -1.4078,-3.14316 c -0.5156,-1.15121 -1.8694,-1.66742 -3.0197,-1.15151 l -3.1431,1.40778 c -3.9355,1.76261 -8.9979,-0.17221 -10.7567,-4.10617 l -1.4032,-3.13491 c -0.4539,-1.01145 -1.692,-1.5205 -2.7442,-1.21045 -1.9301,10.0021 -2.5439,22.36531 -1.3101,33.96379 0.6138,0.32749 1.3533,0.4302 1.9982,0.1397 l 3.1476,-1.40821 c 4.0929,-1.83291 8.9221,0.006 10.7538,4.10291 l 1.4078,3.14316 c 0.4979,1.11187 1.9077,1.64946 3.0197,1.15151 l 3.1431,-1.40778 c 4.094,-1.83681 8.9228,0.005 10.7543,4.10097 l 1.4077,3.14316 c 0.4981,1.11194 1.9079,1.64953 3.0197,1.15151 l 3.1431,-1.40777 c 4.0943,-1.83675 8.9229,0.005 10.7546,4.10107 l 1.409,3.13931 c 0.2903,0.65148 0.9096,1.06902 1.5899,1.23287 8.6438,-7.8318 16.4157,-17.46323 21.6362,-26.21062 -0.5832,-0.93151 -1.8433,-1.38162 -2.8524,-0.92804"
       style="opacity:1;fill:#f6f6f6;fill-opacity:1;fill-rule:nonzero;stroke:none;stroke-width:0.10147"
       id="path84" />
    <path
       d="m 1703.9682,649.38048 -5.0874,4.26742 c -0.3429,0.28953 -0.8141,0.36938 -1.2341,0.20922 -0.42,-0.16016 -0.7176,-0.53322 -0.7806,-0.97749 l -0.9531,-6.57086 c -0.066,-0.44989 0.1204,-0.89672 0.4822,-1.16923 l 4.8383,-3.61746 c 0.3386,-0.25532 0.7867,-0.31683 1.1811,-0.16644 0.3953,0.15072 0.6886,0.49496 0.7702,0.91051 l 1.202,5.92084 c 0.087,0.44371 -0.071,0.90137 -0.4168,1.19417 z m 22.9888,-5.98334 -1.4062,-3.136 c -0.5149,-1.15311 -1.8695,-1.66423 -3.0188,-1.15334 l -3.1432,1.40773 c -4.0942,1.83678 -8.9229,-0.005 -10.7544,-4.101 l -1.4078,-3.14316 c -0.5156,-1.15122 -1.8685,-1.66712 -3.0198,-1.15154 l -3.1431,1.40777 c -4.0941,1.83678 -8.9228,-0.005 -10.7544,-4.10101 l -1.4077,-3.14315 c -0.5157,-1.15122 -1.8694,-1.66744 -3.0197,-1.15151 l -3.1431,1.40777 c -1.1308,0.5049 -2.3467,0.67763 -3.558,0.61317 2.3913,14.05975 7.8221,26.01523 17.3477,29.64766 9.5256,3.63242 21.5371,-1.67177 32.681,-10.57011 -0.9468,-0.7585 -1.7457,-1.70168 -2.2526,-2.83325"
       style="opacity:1;fill:#f6f6f6;fill-opacity:1;fill-rule:nonzero;stroke:none;stroke-width:0.10147"
       id="path86" />
    <path
       d="m 1690.8622,572.02545 4.8376,-3.61878 c 0.3382,-0.2544 0.7862,-0.31595 1.1816,-0.16516 0.3955,0.15078 0.6877,0.49464 0.7707,0.90962 l 1.2008,5.92145 c 0.088,0.44304 -0.071,0.90037 -0.4174,1.19283 l -5.0873,4.26749 c -0.3418,0.28994 -0.8132,0.36972 -1.2332,0.20956 -0.4199,-0.16009 -0.7184,-0.5335 -0.7814,-0.97779 l -0.9532,-6.57093 c -0.065,-0.44952 0.1213,-0.89634 0.4837,-1.16754 z m 14.5856,5.56197 4.8388,-3.61836 c 0.3381,-0.2544 0.7852,-0.31631 1.1804,-0.16559 0.3955,0.15079 0.6877,0.49464 0.7707,0.90962 l 1.2008,5.92145 c 0.089,0.44315 -0.07,0.9008 -0.4165,1.19319 l -5.0862,4.26792 c -0.3427,0.28954 -0.8141,0.36936 -1.2342,0.20916 -0.4201,-0.16019 -0.7176,-0.53321 -0.7815,-0.97782 l -0.9532,-6.57094 c -0.065,-0.44948 0.1214,-0.8963 0.4838,-1.16753 z m 14.5857,5.56203 4.8387,-3.61843 c 0.338,-0.25443 0.786,-0.31599 1.1805,-0.16555 0.3954,0.15075 0.6887,0.49499 0.7706,0.90959 l 1.2017,5.9218 c 0.088,0.44279 -0.071,0.90044 -0.4165,1.19319 l -5.0871,4.26756 c -0.3427,0.28954 -0.8141,0.36936 -1.2342,0.20916 -0.42,-0.16016 -0.7175,-0.53318 -0.7806,-0.97746 l -0.9531,-6.5709 c -0.066,-0.44987 0.1204,-0.89669 0.4819,-1.16825 z m 14.5865,5.56228 4.8387,-3.61839 c 0.3371,-0.25479 0.7852,-0.31631 1.1806,-0.16555 0.3955,0.15082 0.6877,0.49464 0.7706,0.90958 l 1.2009,5.92152 c 0.088,0.44305 -0.07,0.9007 -0.4165,1.19319 l -5.0864,4.26781 c -0.3427,0.28958 -0.8142,0.36936 -1.2341,0.20924 -0.4209,-0.16052 -0.7185,-0.53357 -0.7816,-0.97786 l -0.9531,-6.5709 c -0.065,-0.44952 0.1215,-0.8963 0.4829,-1.16789 z m 14.5857,5.562 4.8386,-3.61843 c 0.3381,-0.25443 0.7852,-0.3163 1.181,-0.16541 0.3951,0.15068 0.688,0.49478 0.7703,0.90952 l 1.201,5.92152 c 0.088,0.443 -0.07,0.90062 -0.4165,1.19318 l -5.0866,4.26774 c -0.3427,0.28958 -0.8138,0.36951 -1.234,0.20928 -0.4203,-0.16027 -0.7182,-0.53343 -0.7812,-0.97772 l -0.9535,-6.57104 c -0.065,-0.44955 0.1213,-0.89637 0.4828,-1.16789 z m -68.1813,-13.10383 c 0.746,0.063 1.484,0.19231 2.1894,0.46132 2.0354,0.77937 3.6425,2.30014 4.5298,4.28265 l 1.4032,3.13491 c 0.4882,1.09185 1.9138,1.64524 3.0151,1.15192 l 3.1477,-1.40821 c 4.0928,-1.83291 8.922,0.006 10.7537,4.10291 l 1.4078,3.14316 c 0.4979,1.11187 1.9077,1.64946 3.0197,1.15151 l 3.1431,-1.40778 c 4.094,-1.83681 8.9228,0.005 10.7543,4.10097 l 1.4078,3.14316 c 0.4981,1.11194 1.9078,1.64953 3.0197,1.15151 l 3.143,-1.40777 c 4.0943,-1.83675 8.9229,0.005 10.7546,4.10107 l 1.4091,3.1393 c 0.4922,1.10536 1.9215,1.64603 3.0145,1.15382 l 3.1427,-1.40573 c 2.6623,-1.19364 5.8153,-0.67004 8.1408,0.99755 0.7877,-1.59681 1.4797,-3.14324 2.0401,-4.6128 2.554,-6.69741 3.4612,-14.15849 2.8506,-21.50881 l -1.9575,0.87599 c -3.9307,1.76227 -8.9956,-0.16697 -10.7575,-4.10434 l -1.4061,-3.13603 c -0.5157,-1.15118 -1.8692,-1.66517 -3.0189,-1.15334 l -3.1432,1.40774 c -4.0941,1.83677 -8.9228,-0.005 -10.7544,-4.101 l -1.4077,-3.14316 c -0.5157,-1.1512 -1.8686,-1.66709 -3.0198,-1.15154 l -3.1431,1.40777 c -4.0942,1.83677 -8.9229,-0.005 -10.7544,-4.101 l -1.4078,-3.14316 c -0.5156,-1.1512 -1.8694,-1.66742 -3.0197,-1.15151 l -3.1431,1.40778 c -3.9355,1.76261 -8.9979,-0.17222 -10.7567,-4.10617 l -0.8745,-1.95268 c -5.3467,5.07861 -9.6375,11.25051 -12.1908,17.94602 -0.5528,1.44965 -1.0608,3.04017 -1.5315,4.73398"
       style="opacity:1;fill:#f6f6f6;fill-opacity:1;fill-rule:nonzero;stroke:none;stroke-width:0.10147"
       id="path88" />
    <path
       d="m 1718.5476,550.47383 4.8621,-4.52275 c 0.3294,-0.30878 0.805,-0.41086 1.2357,-0.26725 l 5.733,1.91905 c 0.4015,0.13468 0.7069,0.46717 0.811,0.88046 0.1,0.41053 -0.017,0.84585 -0.3125,1.1514 l -4.1898,4.35454 c -0.3121,0.32843 -0.7808,0.45589 -1.2165,0.33647 l -6.4048,-1.7517 c -0.4331,-0.11723 -0.7666,-0.46174 -0.8767,-0.89902 -0.1039,-0.43384 0.03,-0.89412 0.3585,-1.2012 z m 12.6103,3.50336 4.8386,-3.61839 c 0.338,-0.25446 0.7861,-0.316 1.1806,-0.16557 0.3953,0.15076 0.6886,0.49499 0.7705,0.9096 l 1.2017,5.92177 c 0.087,0.44376 -0.071,0.90142 -0.4164,1.19322 l -5.0875,4.26849 c -0.3428,0.28955 -0.8138,0.36842 -1.2339,0.20822 -0.42,-0.16016 -0.7179,-0.53222 -0.7809,-0.97652 l -0.9528,-6.57182 c -0.067,-0.44894 0.1201,-0.89576 0.4819,-1.16829 z m 11.6259,-1.07253 c 0.3518,-0.23941 0.8022,-0.28378 1.1904,-0.11726 l 5.5561,2.38584 c 0.417,0.17966 0.7027,0.57203 0.7439,1.02215 l 0.6152,6.61142 c 0.041,0.44786 -0.1644,0.88102 -0.5314,1.13528 -0.3733,0.25293 -0.8524,0.28743 -1.2527,0.087 l -5.9451,-2.95773 c -0.4045,-0.2009 -0.6693,-0.60817 -0.6845,-1.06141 l -0.2264,-6.03855 c -0.017,-0.42465 0.1862,-0.82709 0.5335,-1.06713 z m -43.2207,2.01376 1.4032,3.13491 c 0.4882,1.09186 1.9135,1.64621 3.0152,1.15192 l 3.1473,-1.40725 c 4.0928,-1.83291 8.922,0.006 10.7541,4.10197 l 1.4078,3.14315 c 0.4979,1.11188 1.9077,1.64948 3.0197,1.15151 l 3.143,-1.40777 c 4.0937,-1.83586 8.9225,0.005 10.7544,4.10097 l 1.4077,3.14315 c 0.4981,1.11196 1.9079,1.64955 3.0197,1.15151 l 3.1431,-1.40777 c 4.0939,-1.83579 8.9225,0.006 10.7546,4.10108 l 1.409,3.1393 c 0.4919,1.10631 1.9212,1.647 3.0146,1.15382 l 3.1427,-1.40575 c 0.1079,-0.0501 0.229,-0.0658 0.3403,-0.11131 -2.7685,-13.99507 -11.0667,-26.67583 -24.05,-31.6268 -12.9833,-4.95093 -27.6172,-1.0171 -39.0053,7.58178 0.057,0.10772 0.1315,0.20218 0.179,0.31151"
       style="opacity:1;fill:#f6f6f6;fill-opacity:1;fill-rule:nonzero;stroke:none;stroke-width:0.10147"
       id="path90" />
  </g>
  <g
     inkscape:groupmode="layer"
     id="layer14"
     inkscape:label="14">
    <path
       d="m 808.671,635.12642 c 1.71863,5.84167 7.86946,9.19365 13.70823,7.47587 5.84173,-1.71865 9.19462,-7.86665 7.476,-13.70832 -1.71807,-5.8397 -7.86669,-9.19445 -13.70842,-7.4758 -5.83876,1.71778 -9.19386,7.86854 -7.47581,13.70825"
       style="opacity:1;fill:#f6f6f6;fill-opacity:1;fill-rule:nonzero;stroke:none;stroke-width:0.10147"
       id="path92" />
    <path
       d="m 833.57757,627.79884 c 2.32263,7.89465 -2.20751,16.20298 -10.10319,18.52591 -7.89367,2.32233 -16.20224,-2.20881 -18.52486,-10.10346 -2.32206,-7.8927 2.20846,-16.20325 10.10212,-18.52559 7.89569,-2.32294 16.20388,2.21045 18.52593,10.10314 z M 804.02956,609.7363 c -1.85744,-0.7799 -3.90277,-0.88364 -5.78452,-0.33002 -1.6917,0.49774 -3.2464,1.51568 -4.40454,3.01883 -2.4452,3.17534 -2.3143,7.48823 0.0122,10.52476 -0.15292,0.0375 -0.31445,0.0533 -0.46343,0.0972 -3.49949,1.02955 -6.09765,4.22032 -6.20597,8.06202 -0.11151,4.01084 2.53518,7.42702 6.20744,8.51281 -2.49949,2.90047 -2.87482,7.20469 -0.60937,10.51514 2.26479,3.30855 6.41674,4.51445 10.02503,3.23606 -0.31772,3.81658 1.91076,7.52294 5.69036,8.86905 3.77712,1.34477 7.84297,-0.11797 10.01109,-3.27528 1.98472,3.27671 5.96534,4.96457 9.81337,3.83247 3.84707,-1.13181 6.28002,-4.70446 6.17659,-8.53251 3.53056,1.48073 7.74288,0.50801 10.19134,-2.67043 2.44644,-3.17786 2.31345,-7.49859 -0.0214,-10.53477 3.72874,-0.87991 6.564,-4.14174 6.67628,-8.14962 0.11179,-4.00986 -2.53509,-7.42705 -6.20715,-8.51183 2.49872,-2.90342 2.87396,-7.20759 0.60851,-10.51807 -2.17148,-3.17099 -6.0836,-4.44639 -9.58117,-3.4174 -0.15094,0.0443 -0.29545,0.11752 -0.44402,0.16985 0.3135,-3.81323 -1.9128,-7.51176 -5.68788,-8.85709 -1.78954,-0.63594 -3.64781,-0.64981 -5.33971,-0.15205 -1.87964,0.55299 -3.54208,1.74757 -4.68498,3.41017 -1.98915,-3.2627 -5.96096,-4.94259 -9.80226,-3.81246 -3.83834,1.12924 -6.26956,4.69293 -6.1758,8.51325"
       style="opacity:1;fill:#f6f6f6;fill-opacity:1;fill-rule:nonzero;stroke:none;stroke-width:0.10147"
       id="path94" />
    <path
       d="m 889.35731,616.80375 c 1.00151,3.40414 -0.94883,6.98497 -4.35297,7.98647 -3.40413,1.00151 -6.98297,-0.95262 -7.98447,-4.35675 -1.00093,-3.4022 0.94978,-6.98209 4.35391,-7.9836 3.40414,-1.0015 6.9826,0.9517 7.98353,4.35388 z m -11.39587,-15.95251 c -2.2157,0.65187 -3.61815,2.70814 -3.56308,4.91206 -1.0744,-0.44863 -2.25452,-0.50865 -3.33896,-0.18961 -0.97844,0.28788 -1.87288,0.87469 -2.5431,1.74245 -1.40993,1.83317 -1.33423,4.32296 0.008,6.07512 -0.0906,0.0214 -0.18159,0.0301 -0.26807,0.0558 -2.01884,0.59395 -3.51864,2.43558 -3.58239,4.65224 -0.0632,2.31594 1.46447,4.28758 3.58189,4.91271 -1.44068,1.67512 -1.65785,4.15797 -0.35084,6.06972 1.30779,1.90728 3.7037,2.60491 5.78698,1.86719 -0.18562,2.20175 1.10045,4.34072 3.28242,5.11714 2.18109,0.7767 4.52747,-0.067 5.77848,-1.89042 1.14564,1.89154 3.44203,2.86596 5.66338,2.21243 2.21849,-0.65269 3.62412,-2.71625 3.56359,-4.9249 2.03819,0.85575 4.46868,0.29407 5.88156,-1.53999 1.413,-1.83408 1.3354,-4.32962 -0.0127,-6.07911 2.15196,-0.50862 3.78786,-2.38998 3.8549,-4.70387 0.0636,-2.31499 -1.46417,-4.28658 -3.58284,-4.91242 1.44193,-1.67441 1.65862,-4.15925 0.3518,-6.07 -1.25476,-1.83086 -3.51262,-2.56699 -5.53147,-1.97304 -0.0882,0.0262 -0.1681,0.0685 -0.25558,0.0986 0.18073,-2.20032 -1.10379,-4.33445 -3.28291,-5.11173 -1.03346,-0.36652 -2.10415,-0.37521 -3.08162,-0.0876 -1.08435,0.31902 -2.04491,1.00884 -2.70413,1.96751 -1.14729,-1.8826 -3.43898,-2.85203 -5.65554,-2.19992"
       style="opacity:1;fill:#f6f6f6;fill-opacity:1;fill-rule:nonzero;stroke:none;stroke-width:0.10147"
       id="path96" />
    <path
       d="m 770.8233,579.59221 c 1.1812,-0.0292 3.46114,-0.45559 5.81488,-1.14066 -1.68327,1.78137 -3.10652,3.61637 -3.67129,4.65196 -1.46996,2.69384 -0.47675,6.06975 2.21781,7.53838 2.69388,1.46988 6.06876,0.47698 7.53842,-2.21782 0.56477,-1.0356 1.33603,-3.22772 1.92188,-5.61174 0.70458,2.35235 1.57811,4.50483 2.19346,5.51474 1.59951,2.61791 5.01933,3.44583 7.63801,1.84832 2.62001,-1.59901 3.44766,-5.01984 1.85065,-7.64061 -0.61883,-1.0068 -2.12991,-2.77072 -3.90029,-4.47104 2.3885,0.57289 4.68998,0.88898 5.87003,0.8591 3.07071,-0.0752 5.49761,-2.62222 5.42202,-5.69058 -0.0733,-3.068 -2.62387,-5.496 -5.69228,-5.42039 -1.18063,0.0279 -3.46593,0.457 -5.82494,1.14256 1.68987,-1.7844 3.11303,-3.61936 3.67915,-4.65745 1.46995,-2.69385 0.47676,-6.06974 -2.21809,-7.53935 -2.6935,-1.46893 -6.06934,-0.47576 -7.54015,2.21833 -0.56268,1.03602 -1.33746,3.22707 -1.91977,5.61215 -0.70554,-2.35205 -1.57763,-4.50283 -2.19348,-5.5105 -1.59893,-2.62019 -5.01884,-3.44809 -7.6377,-1.85156 -2.62175,1.60055 -3.44854,5.02115 -1.84874,7.64003 0.61431,1.00918 2.12627,2.77285 3.89789,4.46964 -2.38725,-0.56797 -4.68577,-0.88495 -5.8684,-0.85641 -3.06697,0.0762 -5.49465,2.62451 -5.4181,5.69259 0.0728,3.06602 2.62005,5.49397 5.68903,5.42031"
       style="opacity:1;fill:#f6f6f6;fill-opacity:1;fill-rule:nonzero;stroke:none;stroke-width:0.10147"
       id="path98" />
    <path
       d="m 841.01335,557.74799 c 5.27419,-1.55167 10.80981,1.47044 12.36118,6.74358 1.55167,5.27415 -1.46574,10.81152 -6.73992,12.3632 -5.27601,1.55221 -10.81125,-1.46896 -12.36291,-6.74309 -1.55138,-5.27315 1.46564,-10.81148 6.74165,-12.36369 z m -20.49649,13.00247 c 1.82423,0.44061 5.50581,0.72406 9.40738,0.64025 -3.32411,2.04306 -6.26479,4.27478 -7.55947,5.63299 -3.36246,3.53408 -3.22809,9.12467 0.30293,12.48801 3.53314,3.36587 9.12257,3.22763 12.48942,-0.30563 1.29411,-1.35699 3.37847,-4.39975 5.25551,-7.81624 0.10737,3.89883 0.5695,7.5579 1.09904,9.35782 1.37696,4.6803 6.28569,7.35909 10.96614,5.98209 4.67939,-1.37669 7.35647,-6.28724 5.97951,-10.96754 -0.52977,-1.80089 -2.12416,-5.13109 -4.14773,-8.46831 3.43216,1.85877 6.83707,3.28973 8.66139,3.73139 4.74238,1.14962 9.51819,-1.76583 10.66454,-6.50843 1.15018,-4.74055 -1.76551,-9.51288 -6.50741,-10.66052 -1.82424,-0.4417 -5.50619,-0.72607 -9.40871,-0.64197 3.32689,-2.04389 6.26948,-4.27617 7.56446,-5.63447 3.36466,-3.53683 3.23029,-9.12746 -0.304,-12.49088 -3.5317,-3.36524 -9.12678,-3.22743 -12.48941,0.30565 -1.29451,1.35921 -3.38308,4.40957 -5.26233,7.83305 -0.10652,-3.90332 -0.5695,-7.56955 -1.09961,-9.37139 -1.37667,-4.67936 -6.28675,-7.35879 -10.96613,-5.98211 -4.68045,1.37701 -7.35619,6.2882 -5.97952,10.96756 0.52978,1.8009 2.12369,5.13017 4.1462,8.46662 -3.42985,-1.85731 -6.83228,-3.28797 -8.65496,-3.73009 -4.74239,-1.14646 -9.51866,1.76704 -10.66588,6.50669 -1.14646,4.74262 1.76627,9.51585 6.50864,10.66546"
       style="opacity:1;fill:#f6f6f6;fill-opacity:1;fill-rule:nonzero;stroke:none;stroke-width:0.10147"
       id="path100" />
    <path
       d="m 53.426064,269.90947 c 0,6.08923 4.954757,11.04096 11.040906,11.04096 6.089283,0 11.041027,-4.95173 11.041027,-11.04096 0,-6.08718 -4.951744,-11.04094 -11.041027,-11.04094 -6.086149,0 -11.040906,4.95376 -11.040906,11.04094"
       style="fill:#f6f6f6;fill-opacity:1;fill-rule:nonzero;stroke:none;stroke-width:0.10147"
       id="path92-2" />
    <path
       d="m 79.388181,269.90947 c 0,8.22921 -6.690985,14.92117 -14.921211,14.92117 -8.228176,0 -14.920128,-6.69196 -14.920128,-14.92117 0,-8.22718 6.691952,-14.92116 14.920128,-14.92116 8.230226,0 14.921211,6.69398 14.921211,14.92116 z M 56.139395,244.24162 c -1.561676,-1.27243 -3.494652,-1.94924 -5.456097,-1.94924 -1.763491,0 -3.542302,0.53779 -5.07756,1.65295 -3.241932,2.35613 -4.333755,6.5306 -2.958813,10.10032 -0.157303,-0.007 -0.316654,-0.0376 -0.471906,-0.0376 -3.647852,0 -7.040934,2.32773 -8.229141,5.98268 -1.23899,3.81627 0.335835,7.84058 3.552435,9.91869 -3.2166,2.07709 -4.791425,6.10038 -3.552435,9.91565 1.238872,3.81325 4.881658,6.14198 8.704062,5.93396 -1.382058,3.57175 -0.290236,7.75637 2.955798,10.11453 3.243984,2.35614 7.557472,2.10042 10.52859,-0.31658 0.979155,3.70366 4.321571,6.44639 8.332642,6.44639 4.010104,0 7.352522,-2.74071 8.333726,-6.44232 2.969068,2.41699 7.284608,2.67271 10.530642,0.31454 3.243983,-2.35815 4.335805,-6.54076 2.952781,-10.11249 3.825421,0.20802 7.466156,-2.12072 8.70503,-5.93397 1.238979,-3.81528 -0.335843,-7.84059 -3.552433,-9.91767 3.21659,-2.08015 4.791412,-6.10342 3.552433,-9.91871 -1.188209,-3.65494 -4.581292,-5.98265 -8.227093,-5.98265 -0.157301,0 -0.316654,0.0293 -0.473956,0.0376 1.376993,-3.56971 0.285169,-7.74623 -2.956762,-10.10234 -1.53731,-1.11518 -3.316122,-1.65297 -5.079611,-1.65297 -1.959394,0 -3.891405,0.67681 -5.457063,1.94924 -0.987356,-3.69148 -4.323622,-6.42406 -8.327694,-6.42406 -4.000937,0 -7.339254,2.73258 -8.327575,6.42406"
       style="fill:#f6f6f6;fill-opacity:1;fill-rule:nonzero;stroke:none;stroke-width:0.10147"
       id="path94-5" />
    <path
       d="m 136.00336,275.10475 c 0,3.5484 -2.88172,6.43318 -6.43018,6.43318 -3.54833,0 -6.43019,-2.88478 -6.43019,-6.43318 0,-3.54639 2.88186,-6.43015 6.43019,-6.43015 3.54846,0 6.43018,2.88376 6.43018,6.43015 z m -6.43018,-18.52033 c -2.30947,0 -4.23532,1.57685 -4.80458,3.70671 -0.90412,-0.73364 -2.01922,-1.12429 -3.14964,-1.12429 -1.01982,0 -2.0436,0.31051 -2.93143,0.95383 -1.87014,1.36071 -2.50018,3.77061 -1.7068,5.83047 -0.0928,-0.005 -0.18264,-0.0224 -0.27287,-0.0224 -2.10451,0 -4.06294,1.34346 -4.7498,3.452 -0.71438,2.20395 0.19482,4.52659 2.04962,5.72393 -1.8548,1.2004 -2.764,3.52101 -2.04962,5.72392 0.7163,2.19886 2.8178,3.54435 5.02473,3.42462 -0.79954,2.05983 -0.16938,4.47483 1.70474,5.83553 1.87314,1.36072 4.36222,1.21358 6.07697,-0.18264 0.56528,2.13796 2.49318,3.7209 4.80868,3.7209 2.31247,0 4.24353,-1.58294 4.80868,-3.71888 1.7139,1.39624 4.20395,1.54338 6.0771,0.18265 1.87313,-1.3607 2.50319,-3.77671 1.70365,-5.83555 2.20802,0.1198 4.30842,-1.22371 5.02581,-3.42459 0.71438,-2.20293 -0.19482,-4.52556 -2.0507,-5.72394 1.85588,-1.19936 2.76508,-3.522 2.0507,-5.72391 -0.68698,-2.11058 -2.64529,-3.45404 -4.74981,-3.45404 -0.0916,0 -0.18058,0.0182 -0.27298,0.0224 0.79447,-2.05986 0.16442,-4.46976 -1.70667,-5.83047 -0.88796,-0.64332 -1.91272,-0.95383 -2.93155,-0.95383 -1.13032,0 -2.2465,0.39065 -3.14954,1.12429 -0.56925,-2.12986 -2.49415,-3.70671 -4.80469,-3.70671"
       style="fill:#f6f6f6;fill-opacity:1;fill-rule:nonzero;stroke:none;stroke-width:0.10147"
       id="path96-1" />
    <path
       d="m 32.791088,205.95089 c 1.141521,0.30543 3.449054,0.53984 5.900497,0.54693 -2.11766,1.23388 -4.000936,2.59257 -4.834972,3.42664 -2.170497,2.16944 -2.170497,5.68841 0,7.85786 2.16941,2.17044 5.687345,2.17044 7.857841,0 0.834036,-0.83409 2.192693,-2.7194 3.427582,-4.84115 0.01207,2.45556 0.242587,4.76706 0.547901,5.90962 0.795557,2.96292 3.842671,4.7224 6.805707,3.92892 2.964845,-0.79452 4.724354,-3.84268 3.931935,-6.80764 -0.309535,-1.14052 -1.261307,-3.25921 -2.479911,-5.39008 2.129843,1.22373 4.248468,2.17653 5.389026,2.48095 2.967017,0.7945 6.014131,-0.96397 6.807636,-3.92892 0.795555,-2.96394 -0.966006,-6.01311 -3.930971,-6.80661 -1.140557,-0.30644 -3.454001,-0.53981 -5.910631,-0.54793 2.124778,-1.2349 4.008053,-2.59358 4.844142,-3.42968 2.170495,-2.16945 2.170495,-5.68843 0,-7.85886 -2.169412,-2.16944 -5.688311,-2.16944 -7.859773,0 -0.832106,0.83509 -2.193778,2.71838 -3.425651,4.84214 -0.01207,-2.45557 -0.242587,-4.76503 -0.548988,-5.90555 -0.794469,-2.96495 -3.841585,-4.72445 -6.80462,-3.93196 -2.966897,0.79552 -4.725441,3.84368 -3.929886,6.80761 0.304469,1.14154 1.257207,3.26025 2.477862,5.38807 -2.129844,-1.21866 -4.245454,-2.17147 -5.388062,-2.47789 -2.96388,-0.79249 -6.012081,0.96699 -6.8045,3.93195 -0.795555,2.9619 0.96287,6.01007 3.927836,6.80558"
       style="fill:#f6f6f6;fill-opacity:1;fill-rule:nonzero;stroke:none;stroke-width:0.10147"
       id="path98-4" />
    <path
       d="m 106.29291,204.80532 c 5.49771,0 9.95524,4.46162 9.95524,9.95825 0,5.49764 -4.45753,9.95826 -9.95524,9.95826 -5.49965,0 -9.95717,-4.46062 -9.95717,-9.95826 0,-5.49663 4.45752,-9.95825 9.95717,-9.95825 z m -23.332993,6.68888 c 1.62561,0.93758 5.07756,2.24857 8.844114,3.26937 -3.765589,1.02181 -7.216573,2.3328 -8.842063,3.27038 -4.223258,2.44138 -5.672146,7.84261 -3.23385,12.0658 2.439379,4.22622 7.840591,5.67115 12.067826,3.23183 1.624527,-0.93658 4.482976,-3.26735 7.24794,-6.01516 -0.997373,3.77063 -1.58688,7.41138 -1.58688,9.28756 0,4.87867 3.953166,8.83398 8.831926,8.83398 4.87767,0 8.83192,-3.95531 8.83192,-8.83398 0,-1.87719 -0.58951,-5.52201 -1.58906,-9.29466 2.76811,2.75188 5.63065,5.08568 7.25614,6.02427 4.2252,2.44138 9.62953,0.99238 12.06784,-3.23384 2.44143,-4.22319 0.99133,-9.62442 -3.23385,-12.06376 -1.62549,-0.93861 -5.07756,-2.25061 -8.84508,-3.2714 3.76848,-1.02182 7.22152,-2.33281 8.84713,-3.27039 4.22615,-2.44339 5.67516,-7.84464 3.23385,-12.06884 -2.4383,-4.2252 -7.84469,-5.67217 -12.06783,-3.23182 -1.62561,0.9386 -4.49009,3.27546 -7.25916,6.02937 0.99943,-3.7747 1.59002,-7.42255 1.59002,-9.30075 0,-4.87767 -3.95425,-8.83398 -8.83192,-8.83398 -4.87876,0 -8.831926,3.95631 -8.831926,8.83398 0,1.8772 0.589507,5.52099 1.587967,9.29263 -2.766051,-2.74985 -5.626548,-5.08265 -7.250104,-6.02125 -4.226158,-2.43832 -9.630505,-0.99136 -12.0688,3.23182 -2.438295,4.22622 -0.991338,9.62749 3.23385,12.06884"
       style="fill:#f6f6f6;fill-opacity:1;fill-rule:nonzero;stroke:none;stroke-width:0.10147"
       id="path100-0" />
  </g>
  <g
     inkscape:groupmode="layer"
     id="layer13"
     inkscape:label="13">
    <path
       d="m 537.93903,619.74926 c 2.17755,-2.68591 3.89442,-5.41749 5.19224,-8.02324 3.55652,-0.36935 6.95475,-2.39266 8.1247,-5.73812 2.92335,-8.36418 6.4261,-12.91917 9.48541,-15.39099 0.80669,-0.65143 1.14358,-1.72701 0.84727,-2.72344 -0.29527,-0.99745 -1.16082,-1.71078 -2.19378,-1.82036 -1.5525,-0.16238 -3.23283,-0.26788 -4.97609,-0.26788 -7.12826,0 -15.28746,1.77064 -19.91551,8.7061 -1.60118,2.40181 -2.34904,5.14659 -2.21205,7.77769 -2.41498,1.85792 -4.88273,4.22014 -7.19626,7.06434 -0.4089,0.50531 -0.89902,1.13038 -1.44492,1.84269 l 12.78421,10.3672 c 0.58346,-0.68088 1.09384,-1.28868 1.50478,-1.79399"
       style="opacity:1;fill:#f6f6f6;fill-opacity:1;fill-rule:nonzero;stroke:none;stroke-width:0.10147"
       id="path102" />
    <path
       d="m 493.06597,661.94962 c 0.13291,0.10962 0.31252,0.16235 0.53169,0.16235 4.63009,0 27.5278,-23.52177 38.99696,-36.22885 l -12.39963,-10.05771 c -10.55186,14.50616 -30.10413,43.71125 -27.12902,46.12421"
       style="opacity:1;fill:#f6f6f6;fill-opacity:1;fill-rule:nonzero;stroke:none;stroke-width:0.10147"
       id="path104" />
    <path
       d="m 548.2413,575.94061 c 7.49051,-2.61997 14.10331,-8.39056 22.83684,-3.65292 5.82852,3.16078 16.21764,18.0302 24.26745,18.33968 -3.20817,15.41531 -13.52798,35.05482 -23.40091,35.05482 -5.36166,0 -10.85323,-5.81625 -15.27427,-13.58276 -1.50684,2.17145 -3.59103,3.92791 -6.02834,5.20643 5.41546,9.11605 12.66448,16.09211 21.30261,16.09211 19.6727,0 32.15158,-36.17201 32.15158,-51.44223 0,-16.99824 -13.7504,-36.00968 -32.15158,-36.00968 -17.96525,0 -31.46077,18.11645 -32.09191,34.79406 2.41396,-1.00049 5.06031,-1.71179 7.91465,-2.14101 0.12177,-0.88582 0.27093,-1.77268 0.47388,-2.6585"
       style="opacity:1;fill:#f6f6f6;fill-opacity:1;fill-rule:nonzero;stroke:none;stroke-width:0.10147"
       id="path106" />
  </g>
  <g
     inkscape:groupmode="layer"
     id="layer12"
     inkscape:label="12">
    <path
       d="m 1448.5675,472.95325 0.018,0.18555 c 0.2614,2.64428 -0.8745,5.01582 -2.9652,6.18691 -0.9202,0.51596 -1.981,0.76261 -3.0675,0.71091 l -3.7282,-0.1765 c -0.1995,-0.009 -0.3907,0.005 -0.5856,0.009 -0.5646,0.9366 -1.3466,1.75797 -2.3673,2.33034 -1.0213,0.57266 -2.1303,0.81162 -3.2244,0.80513 -0.1064,0.16329 -0.2182,0.32032 -0.3143,0.49526 l -1.7157,3.13167 c -0.5346,0.97683 -1.3155,1.7722 -2.2574,2.30037 -2.1398,1.19985 -4.8215,0.92429 -6.9987,-0.72083 -0.2342,-0.17715 -0.4509,-0.37774 -0.6732,-0.56956 l -4.9609,2.78173 c 8.4239,10.16536 24.9668,21.75213 34.0849,16.63925 9.1177,-5.1126 7.8616,-25.27116 3.5824,-37.76064 l -4.9611,2.78186 c 0.047,0.2891 0.1058,0.57685 0.1345,0.86919"
       style="opacity:1;fill:#f6f6f6;fill-opacity:1;fill-rule:nonzero;stroke:none;stroke-width:0.0541313"
       id="path108" />
    <path
       d="m 1415.7352,478.89176 c -0.065,-0.38468 -0.1302,-0.76913 -0.1635,-1.15824 -0.2215,-2.59963 0.919,-4.9309 2.9744,-6.08341 0.9202,-0.51599 1.9808,-0.76259 3.0683,-0.71142 l 3.7761,0.17885 c 0.1916,0.009 0.374,-0.005 0.5601,-0.009 0.5656,-0.94585 1.353,-1.77521 2.3823,-2.35236 1.0279,-0.57636 2.1461,-0.81553 3.2486,-0.80508 0.1003,-0.15743 0.2079,-0.30651 0.3001,-0.47423 l 1.8171,-3.31267 c 0.5225,-0.95395 1.2866,-1.73178 2.2077,-2.24832 2.0544,-1.15197 4.6373,-0.90853 6.7435,0.6362 0.3138,0.23112 0.6074,0.48666 0.9011,0.74277 l 5.186,-2.90801 c -6.9355,-8.71801 -19.9764,-13.3497 -29.5681,-7.97128 -9.5923,5.3787 -12.4412,18.92041 -8.6207,29.38513 l 5.187,-2.90856"
       style="opacity:1;fill:#f6f6f6;fill-opacity:1;fill-rule:nonzero;stroke:none;stroke-width:0.0541313"
       id="path110" />
    <path
       d="m 1439.1833,476.75187 3.516,0.16645 c 0.5195,0.0246 0.9925,-0.0905 1.3949,-0.31605 0.9631,-0.54007 1.5264,-1.71919 1.3846,-3.15642 l -0.018,-0.18235 c -0.3148,-3.18344 -2.092,-6.30646 -4.6613,-8.19657 -1.142,-0.83794 -2.4177,-0.96043 -3.3667,-0.42826 -0.4032,0.22608 -0.7466,0.57006 -0.9975,1.02665 l -1.7106,3.11762 c 1.0127,0.5685 1.8965,1.39231 2.505,2.47731 l 1.1453,2.04252 c 0.6118,1.09114 0.855,2.28289 0.8078,3.44939"
       style="opacity:1;fill:#f6f6f6;fill-opacity:1;fill-rule:nonzero;stroke:none;stroke-width:0.0541313"
       id="path112" />
    <path
       d="m 1425.0208,474.22555 -3.5533,-0.16853 c -0.5195,-0.0245 -0.992,0.0902 -1.3946,0.31598 -0.9491,0.53216 -1.5105,1.68354 -1.3907,3.09592 0.2722,3.17818 2.0112,6.32262 4.5621,8.2522 1.2105,0.91494 2.5761,1.05588 3.5884,0.48826 0.4226,-0.23694 0.7838,-0.59777 1.0465,-1.07771 l 1.6156,-2.94831 c -1.0194,-0.56723 -1.9094,-1.39628 -2.5212,-2.48742 l -1.1453,-2.04252 c -0.6084,-1.085 -0.8503,-2.26879 -0.8075,-3.42785"
       style="opacity:1;fill:#f6f6f6;fill-opacity:1;fill-rule:nonzero;stroke:none;stroke-width:0.0541313"
       id="path114" />
    <path
       d="m 1434.3446,479.47693 c 1.6449,-0.92236 2.2305,-3.00269 1.3081,-4.64767 l -1.1453,-2.04252 c -0.9224,-1.64498 -3.0028,-2.23041 -4.6477,-1.30804 -1.6454,0.92263 -2.231,3.00295 -1.3086,4.64792 l 1.1453,2.04252 c 0.9224,1.64498 3.0028,2.23042 4.6482,1.30779"
       style="opacity:1;fill:#f6f6f6;fill-opacity:1;fill-rule:nonzero;stroke:none;stroke-width:0.0541313"
       id="path116" />
  </g>
  <g
     inkscape:groupmode="layer"
     id="layer11"
     inkscape:label="11">
    <path
       d="m 1710.615,321.43364 c -2.8018,0.46576 -5.3432,1.15467 -7.5948,1.97745 2.745,2.42896 5.684,3.86701 8.4888,3.40075 1.1531,-0.19169 2.2048,-0.75842 3.1922,-1.50787 -0.9909,-1.17144 -1.8231,-2.53285 -2.4909,-4.06248 -0.5356,0.0705 -1.0458,0.10085 -1.5953,0.19221"
       style="opacity:1;fill:#f6f6f6;fill-opacity:1;fill-rule:nonzero;stroke:none;stroke-width:0.10147"
       id="path118" />
    <path
       d="m 1705.532,290.85723 c -5.8487,0.97228 -10.5964,2.89302 -13.787,5.04761 -0.5451,2.37004 -0.6765,4.8215 -0.2884,7.15574 0.012,0.0731 0.039,0.15703 0.052,0.23111 3.7572,-2.56356 9.0373,-4.62319 15.1551,-5.64021 1.3403,-0.22281 2.6476,-0.35995 3.9364,-0.46512 0.4724,-2.67169 1.104,-5.03555 1.8299,-6.88739 -2.1492,0.003 -4.4364,0.14911 -6.8958,0.55797"
       style="opacity:1;fill:#f6f6f6;fill-opacity:1;fill-rule:nonzero;stroke:none;stroke-width:0.10147"
       id="path120" />
    <path
       d="m 1711.0683,317.92372 c -0.5923,-2.13983 -0.9764,-4.4377 -1.1686,-6.8045 -0.3312,0.05 -0.6421,0.0667 -0.9794,0.12276 -5.0509,0.83965 -9.2278,2.40116 -12.3456,4.19493 1.1585,1.88935 2.4465,3.7037 3.8342,5.3122 2.8516,-1.17971 6.1015,-2.12419 9.6409,-2.71257 0.3484,-0.0579 0.6736,-0.0626 1.018,-0.11265"
       style="opacity:1;fill:#f6f6f6;fill-opacity:1;fill-rule:nonzero;stroke:none;stroke-width:0.10147"
       id="path122" />
    <path
       d="m 1709.7302,307.67168 c -0.029,-2.35897 0.1081,-4.70234 0.3565,-6.94488 -0.9451,0.0944 -1.8666,0.15703 -2.8604,0.32225 -6.5202,1.0839 -11.6204,3.35329 -14.7662,5.80285 0.6067,1.77434 1.4279,3.67655 2.4126,5.5845 3.5912,-2.07203 8.2251,-3.71772 13.4833,-4.59182 0.4665,-0.0776 0.9125,-0.10942 1.3742,-0.1729"
       style="opacity:1;fill:#f6f6f6;fill-opacity:1;fill-rule:nonzero;stroke:none;stroke-width:0.10147"
       id="path124" />
    <path
       d="m 1746.5185,293.23861 c 0.3701,2.22614 -1.1347,4.33092 -3.3629,4.70132 -2.2262,0.37009 -4.331,-1.13465 -4.701,-3.36079 -0.3704,-2.22814 1.1343,-4.33291 3.3605,-4.703 2.2281,-0.37039 4.333,1.13433 4.7034,3.36247 z m -8.8699,21.41645 c -2.226,0.37005 -4.3308,-1.13465 -4.7008,-3.36081 -0.3704,-2.22814 1.1343,-4.33289 3.3603,-4.70294 2.2283,-0.37041 4.3331,1.13429 4.7035,3.36243 0.3701,2.22616 -1.1347,4.33091 -3.363,4.70132 z m -14.153,-12.53762 c -2.2261,0.37007 -4.3318,-1.13447 -4.7021,-3.36161 -0.3702,-2.22716 1.1355,-4.33206 3.3616,-4.70213 2.2272,-0.37024 4.3329,1.13431 4.7031,3.36147 0.3703,2.22714 -1.1354,4.33204 -3.3626,4.70227 z m 16.6462,-22.54253 c -1.6672,-0.72883 -3.4212,-1.06471 -5.1949,-1.13401 0.579,0.58061 1.0402,1.28775 1.1849,2.15857 0.3701,2.22616 -1.1345,4.33193 -3.3628,4.70234 -2.226,0.37006 -4.3309,-1.13567 -4.701,-3.36183 -0.1491,-0.89684 0.07,-1.7438 0.4544,-2.49587 -5.4587,1.89595 -10.3532,6.21823 -12.6542,11.48467 -2.5691,5.88702 -3.7452,17.15876 -1.7273,25.3249 0.5341,-1.22439 1.5913,-2.1963 3.0087,-2.43192 2.2271,-0.37023 4.3329,1.13433 4.7033,3.36246 0.37,2.22616 -1.1357,4.33107 -3.3628,4.7013 -0.8298,0.13795 -1.6092,-0.0524 -2.3214,-0.37629 1.0353,1.73597 2.356,3.06656 4.0121,3.79006 1.4984,0.65403 3.1735,0.77469 4.9412,0.48082 8.8096,-1.46449 19.94,-13.22251 23.1968,-20.6845 3.9127,-8.96068 0.7855,-21.60928 -8.177,-25.5207"
       style="opacity:1;fill:#f6f6f6;fill-opacity:1;fill-rule:nonzero;stroke:none;stroke-width:0.10147"
       id="path126" />
    <path
       d="m 1674.5816,296.35723 19.7891,-3.2897 c 1.7486,-0.29068 2.9123,-1.86043 2.8195,-3.58851 2.3816,-0.8516 4.9784,-1.55381 7.7771,-2.01906 3.218,-0.53496 6.3064,-0.71818 9.1527,-0.59989 0.2701,-0.44195 0.5944,-0.85383 0.8951,-1.28029 -3.1872,-2.32253 -6.9975,-3.57458 -10.8482,-2.93445 -2.8529,0.47425 -5.3535,1.92164 -7.3808,3.95178 l -2.862,-17.21655 63.479,-10.55262 c 0.6077,-0.10101 1.182,0.30959 1.283,0.91717 l 11.2202,67.49495 -87.7655,14.58993 z m 13.723,-18.77837 1.539,9.2579 -9.2589,1.53918 z m -10.1536,82.03588 c 0.4128,2.48338 2.7606,4.16268 5.2429,3.75002 l 92.2939,-15.34271 c 2.4824,-0.41268 4.1615,-2.76139 3.7486,-5.24477 l -13.9553,-84.16175 c -0.7237,-4.35318 -4.8549,-7.30569 -9.208,-6.58205 l -85.5653,14.22419 c -4.3532,0.72366 -7.306,4.8538 -6.5823,9.20698 l 14.0254,84.1501"
       style="opacity:1;fill:#f6f6f6;fill-opacity:1;fill-rule:nonzero;stroke:none;stroke-width:0.10147"
       id="path128" />
  </g>
  <g
     inkscape:groupmode="layer"
     id="layer10"
     inkscape:label="10">
    <path
       d="m 1396.7079,326.57875 c -3.0647,-1.02579 -6.3706,0.63157 -7.3951,3.69242 -1.0255,3.06376 0.6179,6.37342 3.6826,7.39921 3.0675,1.02675 6.3798,-0.62418 7.4053,-3.68795 1.0245,-3.06085 -0.6253,-6.37694 -3.6928,-7.40368"
       style="opacity:1;fill:#f6f6f6;fill-opacity:1;fill-rule:nonzero;stroke:none;stroke-width:0.10147"
       id="path130" />
    <path
       d="m 1376.2325,319.72536 c -3.0598,-1.02414 -6.3743,0.63034 -7.3988,3.69119 -1.0255,3.06376 0.6265,6.37631 3.6863,7.40045 3.0724,1.02839 6.3837,-0.62289 7.4092,-3.68665 1.0245,-3.06085 -0.6242,-6.37659 -3.6967,-7.40499"
       style="opacity:1;fill:#f6f6f6;fill-opacity:1;fill-rule:nonzero;stroke:none;stroke-width:0.10147"
       id="path132" />
    <path
       d="m 1376.4902,306.11094 c 1.0478,0.3507 2.1825,-0.21327 2.5335,-1.26209 1.1015,-3.29083 4.6777,-5.07171 7.9685,-3.97022 1.6655,0.55746 2.9598,1.80279 3.6803,3.42217 l -1.5086,4.50709 -9.5985,4.78357 c -0.4382,0.21611 -0.6987,0.67782 -0.6621,1.16302 0.033,0.48717 0.3569,0.90593 0.8188,1.06054 l 16.5571,5.5419 c 0.4647,0.15553 0.9767,0.0166 1.2953,-0.35295 0.3184,-0.36636 0.3881,-0.89194 0.1713,-1.32728 l -4.784,-9.59759 1.5093,-4.509 c 1.5449,-0.85896 3.3278,-1.07432 4.9973,-0.51553 3.2919,1.10184 5.0715,4.67537 3.97,7.96619 -0.3511,1.04883 0.2145,2.18191 1.2633,2.53296 1.0479,0.35073 2.1827,-0.2132 2.5337,-1.26203 1.802,-5.38368 -1.1122,-11.22987 -6.4967,-13.03217 -2.3161,-0.77523 -4.7725,-0.69322 -7.0019,0.19343 -1.2453,-2.04969 -3.1612,-3.59515 -5.4743,-4.36937 -5.3847,-1.80232 -11.2337,1.1107 -13.0357,6.49437 -0.3511,1.04883 0.2146,2.18194 1.2634,2.53299"
       style="opacity:1;fill:#f6f6f6;fill-opacity:1;fill-rule:nonzero;stroke:none;stroke-width:0.10147"
       id="path134" />
    <path
       d="m 1396.5254,293.10915 c 18.7374,6.27168 30.069,23.07502 25.256,37.45458 -4.8134,14.38053 -23.9764,20.97475 -42.7139,14.70308 -18.7364,-6.27133 -30.0618,-23.07046 -25.2485,-37.45098 4.8131,-14.37956 23.97,-20.978 42.7064,-14.70668 z m 1.5454,109.73111 c -0.3292,0.009 -0.658,-0.0448 -1.0024,-0.16004 -5.2336,-1.75176 -11.1372,-15.8844 -11.5523,-35.66377 -0.087,-4.31873 0.092,-8.30029 0.4703,-11.93822 2.1206,0.30104 4.2197,0.45898 6.2926,0.49902 -0.851,4.06804 -1.319,9.28939 -1.202,15.02648 0.2725,12.86205 3.3153,23.23043 6.8011,23.15808 3.4877,-0.0717 6.0906,-10.56207 5.8277,-23.4177 -0.1261,-6.00443 -0.8805,-11.37169 -1.9803,-15.47742 2.1463,-0.38588 4.2041,-0.95548 6.2028,-1.62936 0.6591,4.0342 1.083,8.49045 1.1851,13.28735 0.4649,22.34482 -6.1166,36.21163 -11.0426,36.31558 z m -37.2368,-44.08524 c -12.2422,15.5428 -25.4638,23.27398 -30.6945,21.52321 -0.3406,-0.11401 -0.6354,-0.2693 -0.892,-0.47408 -3.8685,-3.0454 -0.78,-18.08139 13.0361,-35.6483 2.9625,-3.76149 5.9874,-7.06339 8.9539,-9.88727 1.1854,1.73323 2.4799,3.41846 3.9521,5.01121 -3.3459,2.6177 -7.1813,6.47759 -10.8805,11.18344 -7.9554,10.10484 -12.1854,20.0506 -9.4465,22.20645 2.7428,2.15713 11.4075,-4.29259 19.3667,-14.39937 3.5581,-4.51447 6.3036,-8.95424 8.0758,-12.72785 1.6868,1.22052 3.4617,2.35924 5.3363,3.39546 -1.8891,3.1342 -4.1345,6.42202 -6.8074,9.8171 z m -23.2669,-18.31149 c -12.6126,16.02979 -21.1158,36.92658 -12.0355,44.07802 0.8001,0.63055 1.7094,1.11785 2.7022,1.45017 8.7669,2.93438 24.1089,-6.73215 37.316,-23.50249 2.7452,-3.48965 5.1799,-7.2213 7.3905,-10.97445 1.1745,0.48415 2.3579,0.95401 3.5857,1.36499 1.2318,0.41227 2.4635,0.75074 3.6944,1.06961 -0.4957,4.3293 -0.7978,8.77369 -0.7096,13.21279 0.4496,21.34142 6.8888,38.2984 15.6519,41.23155 0.994,0.3327 2.0161,0.49183 3.0345,0.47 11.5571,-0.2481 17.3439,-22.05412 16.9178,-42.44603 -0.1158,-5.5494 -0.6508,-10.77901 -1.5174,-15.55894 7.4379,-3.86857 13.1624,-9.92956 15.7747,-17.73422 6.2141,-18.56526 -7.379,-39.9124 -30.3061,-47.58641 -22.9231,-7.67267 -46.628,1.19035 -52.842,19.75561 -2.6123,7.80466 -1.6864,16.09595 1.9247,23.66061 -3.5662,3.29834 -7.1497,7.14728 -10.5818,11.50919"
       style="opacity:1;fill:#f6f6f6;fill-opacity:1;fill-rule:nonzero;stroke:none;stroke-width:0.10147"
       id="path136" />
  </g>
  <g
     inkscape:groupmode="layer"
     id="layer9"
     inkscape:label="09">
    <path
       d="m 230.12696,411.9888 14.09583,-12.41494 c -6.72453,-9.35997 -16.52734,-16.10034 -27.81207,-16.81592 -1.67119,-0.10425 -3.31916,-0.0367 -4.95253,0.11814 3.13515,4.50817 5.27969,9.67232 6.46871,15.25813 l 12.20006,13.85459"
       style="opacity:1;fill:#f6f6f6;fill-opacity:1;fill-rule:nonzero;stroke:none;stroke-width:0.130133"
       id="path138" />
    <path
       d="m 211.13563,465.93177 -16.48207,14.52029 -13.63384,-15.47224 c 6.36232,16.1386 16.23762,30.09033 28.22785,30.85119 11.98329,0.76174 23.5472,-11.83162 31.89277,-27.04104 l -15.47753,13.6284 -14.52718,-16.4866"
       style="opacity:1;fill:#f6f6f6;fill-opacity:1;fill-rule:nonzero;stroke:none;stroke-width:0.130133"
       id="path140" />
    <path
       d="m 218.98785,408.69225 c -0.0133,2.39116 -0.12397,4.81446 -0.46111,7.29494 -0.57727,4.23823 -1.66712,8.37858 -3.1251,12.35827 l 12.77214,14.49585 16.48871,-14.51986 8.07336,9.17159 c 0.43518,-2.33207 0.78012,-4.57762 0.90804,-6.5979 0.41399,-6.59266 -0.7813,-13.38621 -3.20115,-19.72833 l -4.37937,-4.97464 -16.48935,14.5224 -10.58622,-12.02234"
       style="opacity:1;fill:#f6f6f6;fill-opacity:1;fill-rule:nonzero;stroke:none;stroke-width:0.130133"
       id="path142" />
    <path
       d="m 227.614,451.56799 -14.52021,-16.48744 -1.1629,1.02232 c -2.96923,5.51021 -6.75316,10.48726 -11.22875,14.54233 -3.73888,3.38706 -8.94633,6.94703 -15.01246,10.28253 l 9.51677,10.79853 16.48836,-14.51861 14.5199,16.48871 16.48937,-14.52241 2.10679,2.39607 c 2.57468,-5.60114 4.67993,-11.31566 6.2053,-16.68014 l -6.91311,-7.84303 -16.48906,14.52114"
       style="opacity:1;fill:#f6f6f6;fill-opacity:1;fill-rule:nonzero;stroke:none;stroke-width:0.130133"
       id="path144" />
    <path
       d="m 99.284086,444.66036 c -6.502885,-1.72017 -12.661634,-2.70588 -18.317771,-3.11848 3.558738,7.9141 8.509274,13.87438 15.017177,15.59589 3.252093,0.86026 6.692628,0.60601 10.194658,-0.50156 -0.96056,-3.19261 -1.40251,-6.64109 -1.42081,-10.25613 -1.80599,-0.5869 -3.5522,-1.21156 -5.473254,-1.71972"
       style="opacity:1;fill:#f6f6f6;fill-opacity:1;fill-rule:nonzero;stroke:none;stroke-width:0.130133"
       id="path146" />
    <path
       d="m 75.684802,386.91781 c 10.591007,-1.88279 23.99944,-1.19095 38.195328,2.56421 3.78928,1.00236 7.38541,2.18516 10.82723,3.48329 3.67326,-5.28632 7.37431,-9.74143 10.7236,-12.91256 -5.10373,-2.42964 -10.90074,-4.61997 -17.381,-6.33416 -13.58323,-3.59311 -25.693252,-4.06395 -34.667401,-2.51266 -3.486289,4.58463 -6.157903,9.74821 -7.589223,15.15911 -0.04493,0.16983 -0.06915,0.3788 -0.108464,0.5528"
       style="opacity:1;fill:#f6f6f6;fill-opacity:1;fill-rule:nonzero;stroke:none;stroke-width:0.130133"
       id="path148" />
    <path
       d="m 105.42454,437.97528 c 0.78196,-5.14925 2.20393,-10.45357 4.09399,-15.73101 -1.32962,-0.40823 -2.58383,-0.86251 -3.979,-1.23156 -11.721309,-3.1006 -22.257091,-3.78768 -30.734427,-2.95434 0.671128,5.20783 1.684029,10.37556 3.119889,15.19612 7.297189,0.22883 15.219831,1.34998 23.443708,3.52541 1.38389,0.36607 2.71621,0.78444 4.05591,1.19533"
       style="opacity:1;fill:#f6f6f6;fill-opacity:1;fill-rule:nonzero;stroke:none;stroke-width:0.130133"
       id="path150" />
    <path
       d="m 142.47206,374.54278 c 0.6889,-0.45177 1.41773,-0.84587 2.12831,-1.26769 -4.57507,-8.93676 -11.95415,-16.08191 -21.51034,-18.60977 -10.71108,-2.83335 -21.91986,0.69786 -30.871279,7.62337 8.463519,-0.19085 17.987889,0.92056 27.916449,3.54691 8.32456,2.20207 15.81948,5.22516 22.33686,8.70718"
       style="opacity:1;fill:#f6f6f6;fill-opacity:1;fill-rule:nonzero;stroke:none;stroke-width:0.130133"
       id="path152" />
    <path
       d="m 112.53955,414.64517 c 2.26335,-5.13158 4.87907,-10.06358 7.63631,-14.65533 -2.66471,-0.94851 -5.43175,-1.84604 -8.38064,-2.6261 -15.129373,-4.00209 -28.343481,-4.05966 -37.519989,-1.83499 -0.412486,4.41913 -0.493527,9.32573 -0.222676,14.39807 9.763354,-0.97778 21.360227,-0.0275 33.572165,3.20288 1.69966,0.4496 3.28298,1.00301 4.91483,1.51547"
       style="opacity:1;fill:#f6f6f6;fill-opacity:1;fill-rule:nonzero;stroke:none;stroke-width:0.130133"
       id="path154" />
    <path
       d="m 150.81682,396.78399 c 5.1656,1.36643 8.24331,6.66166 6.87688,11.82723 -1.36643,5.1656 -6.66016,8.24774 -11.82576,6.88131 -5.16555,-1.36642 -8.24293,-6.66293 -6.87649,-11.82853 1.36641,-5.16557 6.65983,-8.24643 11.82537,-6.88001 z m 18.35519,40.82685 c 5.16682,1.36676 8.25048,6.66495 6.8834,11.83304 -1.36576,5.16304 -6.66579,8.24355 -11.83263,6.87679 -5.16556,-1.36642 -8.24293,-6.66294 -6.87718,-11.82601 1.36709,-5.16809 6.66084,-8.25024 11.82641,-6.88382 z m 28.146,-30.72295 c 5.16558,1.36643 8.25023,6.66082 6.88214,11.8327 -1.36675,5.16683 -6.66645,8.24607 -11.83202,6.87964 -5.1656,-1.36643 -8.2433,-6.66169 -6.87654,-11.82853 1.3681,-5.17187 6.66083,-8.25024 11.82642,-6.88381 z m -85.34054,29.73826 c 2.34089,-2.02045 5.60487,-2.88948 8.81039,-2.04153 5.16558,1.36643 8.24328,6.66169 6.87684,11.82727 -1.36742,5.16935 -6.66014,8.24771 -11.82571,6.88128 -1.83302,-0.48487 -3.38628,-1.48264 -4.59272,-2.77903 0.57461,4.62638 2.10474,8.68845 4.91779,11.79361 2.5969,2.86896 6.09847,4.76036 10.19721,5.84457 20.43588,5.4058 55.89744,-9.15385 70.18785,-22.09075 17.16291,-15.53687 22.70969,-45.87897 7.17556,-63.0371 -2.83318,-3.13068 -6.21986,-5.53281 -9.89359,-7.39435 0.63014,1.77525 0.75824,3.74885 0.24042,5.7064 -1.36575,5.16306 -6.66578,8.24354 -11.83261,6.87679 -5.16557,-1.36643 -8.24295,-6.66295 -6.87719,-11.82601 0.5358,-2.02548 1.68879,-3.71268 3.18546,-4.95362 -13.56323,-1.14467 -28.22277,3.41209 -38.25718,12.49292 -11.21289,10.15691 -24.64003,33.1728 -28.31252,52.69955"
       style="opacity:1;fill:#f6f6f6;fill-opacity:1;fill-rule:nonzero;stroke:none;stroke-width:0.130133"
       id="path156" />
  </g>
  <g
     inkscape:groupmode="layer"
     id="layer8"
     inkscape:label="08">
    <path
       d="m 1406.8628,622.66852 c 6.971,0.72957 13.1423,-0.30542 16.989,-4.15113 3.8406,-3.84471 4.8798,-10.01205 4.1511,-16.99115 -3.7857,2.5895 -7.6853,5.78074 -11.5228,9.61834 -3.8426,3.84063 -7.0319,7.74418 -9.6173,11.52394"
       style="opacity:1;fill:#f6f6f6;fill-opacity:1;fill-rule:nonzero;stroke:none;stroke-width:0.10147"
       id="path158" />
    <path
       d="m 1390.7006,572.39115 c 6.3368,-5.16481 12.8147,-8.9527 18.8065,-11.14546 -0.1003,-0.10251 -0.203,-0.24049 -0.3034,-0.34094 -3.1954,-3.1963 -7.1567,-5.71581 -11.4488,-7.50676 -3.9524,1.47336 -8.3552,3.85384 -12.897,7.09579 2.4739,3.70672 4.4434,7.73102 5.8427,11.89737"
       style="opacity:1;fill:#f6f6f6;fill-opacity:1;fill-rule:nonzero;stroke:none;stroke-width:0.10147"
       id="path160" />
    <path
       d="m 1387.963,617.43367 c 3.9095,1.64687 7.9298,3.04006 11.878,3.99083 3.1223,-4.99841 7.1223,-10.07699 11.9857,-14.93436 4.8471,-4.85127 9.9329,-8.85935 14.9343,-11.98461 -0.9569,-3.94515 -2.342,-7.97148 -3.996,-11.873 -6.2566,2.86145 -13.334,7.62039 -20.2564,14.54166 -6.9252,6.92635 -11.6842,14.00388 -14.5456,20.25948"
       style="opacity:1;fill:#f6f6f6;fill-opacity:1;fill-rule:nonzero;stroke:none;stroke-width:0.10147"
       id="path162" />
    <path
       d="m 1387.9548,550.76992 c -3.8152,-0.50531 -7.6538,-0.38964 -11.3068,0.34095 1.4917,1.30085 2.9031,2.70011 4.2253,4.19782 2.3684,-1.69354 4.7416,-3.24807 7.0815,-4.53877"
       style="opacity:1;fill:#f6f6f6;fill-opacity:1;fill-rule:nonzero;stroke:none;stroke-width:0.10147"
       id="path164" />
    <path
       d="m 1393.1208,586.38488 c 0,3.70467 -0.5866,8.33678 -1.7058,13.38287 1.9654,-2.44339 4.0618,-4.87664 6.4363,-7.25104 7.2011,-7.20233 14.9271,-12.58633 22.1386,-15.86786 -1.8731,-3.64989 -3.9219,-7.04306 -5.9999,-9.96335 -6.2313,1.84675 -13.8477,6.08007 -21.4935,12.8187 0.3866,2.30134 0.6243,4.60472 0.6243,6.88068"
       style="opacity:1;fill:#f6f6f6;fill-opacity:1;fill-rule:nonzero;stroke:none;stroke-width:0.10147"
       id="path166" />
    <path
       d="m 1336.9854,598.42024 c 4.1166,0 7.456,3.33735 7.456,7.45602 0,4.11764 -3.3394,7.455 -7.456,7.455 -4.1186,0 -7.457,-3.33736 -7.457,-7.455 0,-4.11867 3.3384,-7.45602 7.457,-7.45602 z m 2.3481,-34.02798 c 4.5559,0 8.2504,3.69453 8.2504,8.24953 0,4.55499 -3.6945,8.24748 -8.2504,8.24748 -4.5551,0 -8.2475,-3.69249 -8.2475,-8.24748 0,-4.555 3.6924,-8.24953 8.2475,-8.24953 z m 27.1127,18.55989 c 5.1232,0 9.2785,4.15521 9.2785,9.28045 0,5.12524 -4.1553,9.27944 -9.2785,9.27944 -5.1262,0 -9.2805,-4.1542 -9.2805,-9.27944 0,-5.12524 4.1543,-9.28045 9.2805,-9.28045 z m -34.997,36.18725 c 3.1345,2.20088 9.4023,6.94359 14.423,12.62591 7.2632,-9.54529 18.1844,-17.84451 23.2661,-21.4122 1.0715,-0.74886 2.3266,-1.14457 3.6357,-1.14457 0.4808,0 0.9648,0.0548 1.454,0.16843 1.7493,0.41704 3.243,1.5596 4.1054,3.14657 l 0.3004,0.55505 c 3.9036,-9.52702 6.2384,-19.59285 6.2384,-26.69371 0,-8.78729 -3.5364,-17.81609 -9.2562,-24.69882 -0.5447,4.70113 -4.492,8.36215 -9.3372,8.36215 -5.2186,0 -9.4479,-4.22927 -9.4479,-9.44788 0,-3.91774 2.3855,-7.27641 5.7817,-8.70713 -3.1019,-1.26532 -6.4037,-1.98475 -9.8395,-1.98475 -17.7258,0 -32.0959,18.7486 -32.0959,36.47643 0,8.41289 3.2642,20.97993 8.5589,31.88391 0.7875,0.15017 1.5495,0.40283 2.2131,0.87061"
       style="opacity:1;fill:#f6f6f6;fill-opacity:1;fill-rule:nonzero;stroke:none;stroke-width:0.10147"
       id="path168" />
    <path
       d="m 1307.7002,652.21151 c 1.5727,6.81169 10.6421,10.52853 15.3939,9.43061 2.3177,-0.53473 9.717,-3.63362 16.5205,-7.44991 -0.9559,-1.46726 -1.6642,-3.18818 -1.9747,-5.11611 -3.4509,1.61235 -7.0461,2.94261 -8.1938,3.20746 -2.4697,0.5723 -7.0145,-0.65955 -7.6324,-3.33634 -0.618,-2.67373 2.9242,-5.77667 5.394,-6.34898 0.9001,-0.20699 3.448,-0.48705 6.3409,-0.63317 1.5303,-0.0771 3.1548,-0.11472 4.6901,-0.0832 0.6889,-1.98374 1.8173,-3.64887 3.2175,-4.90608 0.6758,-0.6078 1.4003,-1.12732 2.1979,-1.5119 -4.8919,-5.85585 -11.6558,-10.89891 -14.5753,-12.94959 -0.2648,-0.18571 -0.5762,-0.2821 -0.8928,-0.2821 -0.1183,0 -0.2365,0.0131 -0.3532,0.0417 -0.4271,0.10252 -0.7944,0.38255 -1.0065,0.77117 l -4.144,7.662 c -0.2335,0.43023 -0.2488,0.94368 -0.043,1.38405 0.2039,0.44343 0.6036,0.76408 1.0797,0.86556 2.7123,0.58038 5.5949,1.84369 8.3286,3.32819 -3.9724,-0.0964 -7.733,0.008 -10.5509,0.21107 -1.8497,0.13191 -3.3221,0.30135 -4.1034,0.48401 -4.7528,1.09892 -11.2663,8.421 -9.6924,15.23166"
       style="opacity:1;fill:#f6f6f6;fill-opacity:1;fill-rule:nonzero;stroke:none;stroke-width:0.10147"
       id="path170" />
    <path
       d="m 1375.3045,635.57043 c -0.3216,-0.10652 -0.6524,-0.24048 -0.9599,-0.29224 -0.3551,-0.0577 -0.9112,-0.10251 -1.5433,-0.13597 -2.0345,-0.11062 -5.315,-0.0812 -8.974,0.16337 4.8289,-2.93654 10.2789,-5.63868 15.3017,-6.71426 0.6787,-0.14814 1.247,-0.60171 1.5373,-1.23388 0.2901,-0.62708 0.2677,-1.35766 -0.061,-1.96953 l -5.8993,-10.90294 c -0.3005,-0.54997 -0.821,-0.94877 -1.4308,-1.09488 -0.1665,-0.0376 -0.3359,-0.0589 -0.5014,-0.0589 -0.4525,0 -0.8939,0.14004 -1.2713,0.40181 -4.5794,3.21356 -15.7471,11.60412 -22.7263,21.00837 1.6002,0.25468 3.0806,0.90205 4.336,1.9401 1.2398,1.02281 2.2384,2.40179 2.98,3.99283 2.4221,-0.24047 5.2085,-0.28004 7.3028,-0.22119 1.2969,0.0355 2.3328,0.10651 2.8159,0.18772 0.8958,0.1461 1.9643,0.67071 2.8877,1.39115 1.3009,1.00658 2.3095,2.40585 2.0801,3.76556 -0.3825,2.33075 -4.2171,3.63362 -6.3692,3.27443 -0.7772,-0.12887 -2.8675,-0.73669 -5.1901,-1.5596 -0.7246,-0.2567 -1.4642,-0.53473 -2.203,-0.82697 0,1.70975 -0.2861,3.32211 -0.7935,4.7843 5.9229,2.81276 12.1773,4.97813 14.148,5.30486 4.1441,0.68898 11.735,-2.99337 12.7223,-8.93039 0.9133,-5.49664 -4.1429,-10.9415 -8.1886,-12.2738"
       style="opacity:1;fill:#f6f6f6;fill-opacity:1;fill-rule:nonzero;stroke:none;stroke-width:0.10147"
       id="path172" />
    <path
       d="m 1347.4318,638.70586 c -3.237,0 -5.86,3.56666 -5.86,7.96845 0,4.39871 2.623,7.96539 5.86,7.96539 3.2369,0 5.862,-3.56668 5.862,-7.96539 0,-4.40179 -2.6251,-7.96845 -5.862,-7.96845"
       style="opacity:1;fill:#f6f6f6;fill-opacity:1;fill-rule:nonzero;stroke:none;stroke-width:0.10147"
       id="path174" />
  </g>
  <g
     inkscape:groupmode="layer"
     id="layer7"
     inkscape:label="07">
    <path
       d="m 314.72015,631.35511 c 13.25714,7.59701 27.03417,11.35442 36.26086,5.75986 9.22843,-5.59561 12.26612,-19.54973 11.65998,-34.81644 -5.90448,6.07333 -13.52437,12.09269 -22.23567,17.37475 -8.71043,5.28153 -17.57,9.25442 -25.68517,11.68183"
       style="opacity:1;fill:#f6f6f6;fill-opacity:1;fill-rule:nonzero;stroke:none;stroke-width:0.10147"
       id="path176" />
    <path
       d="m 295.92771,592.93508 c -2.02141,-1.94034 -3.17131,-4.54914 -3.23132,-7.34886 -0.0826,-3.73534 1.85383,-7.26028 5.05112,-9.19899 1.09672,-0.66499 2.30753,-1.1203 3.56724,-1.35012 -1.91795,-4.68966 -0.19322,-10.22339 4.27349,-12.93176 4.46672,-2.70838 10.16934,-1.67581 13.44084,2.19313 0.78428,-1.01193 1.7513,-1.87713 2.84892,-2.54266 3.19644,-1.93815 7.21819,-2.02595 10.49015,-0.22684 4.5721,2.51076 6.53153,7.96556 4.82383,12.73666 2.18202,0.29314 4.21005,1.2659 5.8308,2.8155 2.02627,1.93856 3.17268,4.54948 3.2292,7.3454 0.0846,3.73654 -1.85173,7.26375 -5.05162,9.20401 -1.09672,0.665 -2.30842,1.12083 -3.56831,1.34838 1.91744,4.6888 0.1953,10.22094 -4.27141,12.92931 -4.46672,2.70838 -10.16982,1.68087 -13.44082,-2.18721 -0.78621,1.01073 -1.74629,1.87174 -2.84388,2.53725 -3.19992,1.94026 -7.22186,2.0258 -10.49471,0.2272 -2.45421,-1.34682 -4.23924,-3.57052 -5.02215,-6.26299 -0.62468,-2.15356 -0.54951,-4.40157 0.19595,-6.46979 -2.18115,-0.2937 -4.20661,-1.26802 -5.82734,-2.81763 z m 9.74756,32.5955 c 8.95673,-1.63831 19.9757,-6.03054 30.68696,-12.52527 10.71212,-6.49525 19.70139,-14.23492 25.29565,-21.42071 -1.9398,-13.9454 -6.34397,-27.63783 -11.37823,-35.94045 -3.48752,-5.75171 -8.42162,-10.74024 -14.11423,-14.66839 -10.43396,2.50556 -22.63544,7.67769 -34.47119,14.85425 -11.83485,7.17601 -22.0624,15.60362 -29.10794,23.69551 0.84984,6.86571 2.99268,13.5467 6.48021,19.29841 5.03427,8.30262 15.13893,18.53856 26.60877,26.70665"
       style="opacity:1;fill:#f6f6f6;fill-opacity:1;fill-rule:nonzero;stroke:none;stroke-width:0.10147"
       id="path178" />
    <path
       d="m 326.46633,535.65948 c -11.96306,-5.00091 -25.4898,-5.4569 -36.32687,1.11412 -10.83532,6.56995 -16.68431,18.77432 -17.78266,31.69374 6.93084,-6.75261 15.5554,-13.39894 25.29487,-19.30443 9.73949,-5.90548 19.62177,-10.4795 28.81466,-13.50343"
       style="opacity:1;fill:#f6f6f6;fill-opacity:1;fill-rule:nonzero;stroke:none;stroke-width:0.10147"
       id="path180" />
    <path
       d="m 315.62315,578.65511 c 3.50969,-2.12808 8.07826,-1.00478 10.20635,2.50491 2.12493,3.50447 1.00862,8.07476 -2.50107,10.20284 -3.50881,2.12756 -8.07742,1.00428 -10.20234,-2.50019 -2.12809,-3.50969 -1.01176,-8.08 2.49706,-10.20756 z m -7.16515,26.41048 c 2.14265,1.17734 4.64706,1.0413 6.59667,-0.14084 0.95702,-0.58029 1.78012,-1.41283 2.35766,-2.46433 0.67171,-1.22065 1.59283,-3.81378 2.29337,-6.63914 0.82825,2.79074 1.85939,5.34458 2.58277,6.53761 1.88818,3.11404 5.93809,4.1021 9.05038,2.21497 3.1097,-1.88555 4.10609,-5.93341 2.2179,-9.04744 -0.72601,-1.19737 -2.51109,-3.28813 -4.61139,-5.31352 2.83467,0.68062 5.56336,1.06123 6.96201,1.03313 1.20028,-0.0265 2.31817,-0.37083 3.27172,-0.94902 1.95049,-1.18266 3.22908,-3.3404 3.17579,-5.78463 -0.0759,-3.63617 -3.08999,-6.52081 -6.72963,-6.4428 -1.39813,0.029 -4.10915,0.52883 -6.9047,1.33747 2.00693,-2.10926 3.7031,-4.28284 4.3752,-5.50917 1.74933,-3.19555 0.58672,-7.19922 -2.60445,-8.95123 -2.1384,-1.17646 -4.64443,-1.03694 -6.59144,0.14361 -0.95703,0.5803 -1.77925,1.41231 -2.35767,2.46434 -0.67349,1.22385 -1.59521,3.82353 -2.29918,6.65692 -0.82218,-2.79442 -1.85648,-5.35347 -2.58251,-6.55085 -1.88817,-3.11403 -5.94123,-4.10728 -9.05091,-2.22173 -3.1123,1.88713 -4.10555,5.94018 -2.21738,9.05421 0.72603,1.19738 2.51428,3.29332 4.61192,5.31439 -2.83834,-0.6867 -5.56301,-1.06853 -6.95698,-1.03855 -1.19939,0.0259 -2.32075,0.3724 -3.27777,0.95269 -1.94703,1.18057 -3.23015,3.33866 -3.17496,5.77819 0.078,3.63965 3.09369,6.52691 6.73193,6.44855 1.39901,-0.0295 4.11054,-0.52848 6.90871,-1.33277 -2.00955,2.10491 -3.70623,4.27763 -4.37921,5.50448 -1.75116,3.19062 -0.58692,7.19694 2.60217,8.94547"
       style="opacity:1;fill:#f6f6f6;fill-opacity:1;fill-rule:nonzero;stroke:none;stroke-width:0.10147"
       id="path182" />
  </g>
  <g
     inkscape:groupmode="layer"
     id="layer6"
     inkscape:label="06">
    <path
       d="m 413.43617,401.58005 1.19136,-6.93301 -2.55747,-5.55437 -8.44284,1.4358 2.25986,13.28849 c 2.55823,-0.37227 5.05882,-0.62359 7.48594,-0.74403 -0.0376,-0.49382 -0.0218,-0.99366 0.0632,-1.49288"
       style="opacity:1;fill:#f6f6f6;fill-opacity:1;fill-rule:nonzero;stroke:none;stroke-width:0.10147"
       id="path184" />
    <path
       d="m 387.11665,393.3363 -1.78262,0.30315 c -3.82927,0.65122 -6.83342,3.64882 -7.48956,7.4771 l -2.55591,14.86296 c 2.81891,-2.35577 6.27844,-4.50345 10.28311,-6.35063 l 1.54498,-16.29258"
       style="opacity:1;fill:#f6f6f6;fill-opacity:1;fill-rule:nonzero;stroke:none;stroke-width:0.10147"
       id="path186" />
    <path
       d="m 399.66189,391.20283 -8.44286,1.43581 -1.44583,15.24747 c 3.7179,-1.39702 7.78977,-2.54649 12.14855,-3.3948 l -2.25986,-13.28848"
       style="opacity:1;fill:#f6f6f6;fill-opacity:1;fill-rule:nonzero;stroke:none;stroke-width:0.10147"
       id="path188" />
    <path
       d="m 396.79401,450.42884 c 0.78465,-6.6374 5.7797,-12.27809 12.69203,-13.45362 6.91334,-1.17569 13.49319,2.49655 16.42699,8.5026 5.69043,-3.83938 10.12646,-8.93009 12.89909,-13.83981 -13.41532,-4.22354 -23.7572,-14.10581 -25.48717,-22.51715 -2.72497,0.14845 -5.5377,0.44049 -8.41768,0.93027 -18.98241,3.22819 -33.16367,12.91784 -31.68006,21.64179 1.07652,6.33014 10.97458,15.4305 23.5668,18.73592"
       style="opacity:1;fill:#f6f6f6;fill-opacity:1;fill-rule:nonzero;stroke:none;stroke-width:0.10147"
       id="path190" />
    <path
       d="m 410.49757,442.92321 c -5.13073,0.87255 -8.58544,5.74182 -7.71256,10.87456 0.87288,5.13272 5.74282,8.58526 10.87355,7.71272 5.13174,-0.87272 8.58663,-5.74099 7.71374,-10.87372 -0.87288,-5.13274 -5.743,-8.58627 -10.87473,-7.71356"
       style="opacity:1;fill:#f6f6f6;fill-opacity:1;fill-rule:nonzero;stroke:none;stroke-width:0.10147"
       id="path192" />
    <path
       d="m 457.99888,365.05756 -8.44386,1.43598 2.25987,13.28848 c 4.39516,-0.64047 8.61694,-0.9024 12.58781,-0.81193 l -6.40382,-13.91253"
       style="opacity:1;fill:#f6f6f6;fill-opacity:1;fill-rule:nonzero;stroke:none;stroke-width:0.10147"
       id="path194" />
    <path
       d="m 480.75346,381.81956 -7.3254,-13.18253 c -1.88473,-3.39615 -5.7109,-5.23218 -9.54118,-4.5808 l -1.78561,0.30367 6.84385,14.86594 c 4.391,0.41839 8.36715,1.30257 11.80834,2.59372"
       style="opacity:1;fill:#f6f6f6;fill-opacity:1;fill-rule:nonzero;stroke:none;stroke-width:0.10147"
       id="path196" />
    <path
       d="m 445.5907,367.16772 -8.44386,1.43598 -1.44584,15.24746 c 3.71874,-1.39817 7.78978,-2.54648 12.14957,-3.39496 l -2.25987,-13.28848"
       style="opacity:1;fill:#f6f6f6;fill-opacity:1;fill-rule:nonzero;stroke:none;stroke-width:0.10147"
       id="path198" />
    <path
       d="m 433.04347,369.30153 -1.78061,0.30281 c -3.83029,0.65139 -6.83444,3.649 -7.49356,7.47777 l -2.55476,14.86379 c 2.81991,-2.35591 6.27944,-4.50359 10.28396,-6.35181 l 1.54497,-16.29256"
       style="opacity:1;fill:#f6f6f6;fill-opacity:1;fill-rule:nonzero;stroke:none;stroke-width:0.10147"
       id="path200" />
    <path
       d="m 442.72166,426.39291 c 0.7848,-6.6364 5.77985,-12.27712 12.6932,-13.45282 6.91234,-1.17552 13.49236,2.49776 16.42597,8.5028 10.79485,-7.28165 17.12907,-19.14355 16.05239,-25.47469 -1.48361,-8.72394 -18.07173,-13.18089 -37.05713,-9.95219 -18.98242,3.22819 -33.16469,12.91802 -31.68107,21.64196 1.07651,6.33014 10.97459,15.4305 23.56664,18.73494"
       style="opacity:1;fill:#f6f6f6;fill-opacity:1;fill-rule:nonzero;stroke:none;stroke-width:0.10147"
       id="path202" />
    <path
       d="m 456.42639,418.8881 c -5.13175,0.87271 -8.58645,5.742 -7.71356,10.87473 0.87288,5.13275 5.7428,8.58526 10.87455,7.71254 5.13071,-0.87254 8.58562,-5.74079 7.71273,-10.87353 -0.87288,-5.13273 -5.74301,-8.58628 -10.87372,-7.71374"
       style="opacity:1;fill:#f6f6f6;fill-opacity:1;fill-rule:nonzero;stroke:none;stroke-width:0.10147"
       id="path204" />
    <path
       d="m 1094.4498,604.72472 3.886,-5.86391 -0.1006,-6.11407 -8.3049,-2.09064 -3.2905,13.07146 c 2.4911,0.69093 4.8806,1.4693 7.1503,2.33782 0.165,-0.46699 0.3807,-0.91808 0.6597,-1.34066"
       style="fill:#f6f6f6;fill-opacity:1;fill-rule:nonzero;stroke:none;stroke-width:0.10147"
       id="path184-5" />
    <path
       d="m 1073.6893,586.56766 -1.7535,-0.44142 c -3.7667,-0.94821 -7.7245,0.58345 -9.8687,3.82209 l -8.3324,12.57029 c 3.5296,-1.01902 7.5614,-1.5893 11.9709,-1.66476 l 7.9837,-14.2862"
       style="fill:#f6f6f6;fill-opacity:1;fill-rule:nonzero;stroke:none;stroke-width:0.10147"
       id="path186-0" />
    <path
       d="m 1086.0297,589.67418 -8.305,-2.09067 -7.4716,13.3698 c 3.9656,0.22083 8.1553,0.81094 12.486,1.79233 l 3.2906,-13.07146"
       style="fill:#f6f6f6;fill-opacity:1;fill-rule:nonzero;stroke:none;stroke-width:0.10147"
       id="path188-9" />
    <path
       d="m 1059.5226,642.71493 c 3.3945,-5.75743 10.2401,-8.90492 17.0395,-7.19328 6.8004,1.71191 11.3408,7.72567 11.6036,14.40479 6.7555,-1.21873 12.8676,-4.08838 17.3846,-7.46317 -10.573,-9.27461 -16.0518,-22.48812 -14.2431,-30.88287 -2.5534,-0.963 -5.245,-1.82996 -8.078,-2.54313 -18.6724,-4.7005 -35.5569,-1.55215 -37.7172,7.02933 -1.5675,6.22676 3.8205,18.54579 14.0106,26.64833"
       style="fill:#f6f6f6;fill-opacity:1;fill-rule:nonzero;stroke:none;stroke-width:0.10147"
       id="path190-4" />
    <path
       d="m 1075.0892,641.3725 c -5.0469,-1.2705 -10.1717,1.79225 -11.4427,6.84116 -1.271,5.0489 1.7931,10.17205 6.8401,11.44255 5.0479,1.27074 10.1725,-1.791 11.4435,-6.8399 1.271,-5.04891 -1.793,-10.17307 -6.8409,-11.44381"
       style="fill:#f6f6f6;fill-opacity:1;fill-rule:nonzero;stroke:none;stroke-width:0.10147"
       id="path192-1" />
    <path
       d="m 1149.9564,589.2731 -8.306,-2.09091 -3.2905,13.07145 c 4.2802,1.18625 8.2491,2.64897 11.8463,4.33299 l -0.2498,-15.31353"
       style="fill:#f6f6f6;fill-opacity:1;fill-rule:nonzero;stroke:none;stroke-width:0.10147"
       id="path194-9" />
    <path
       d="m 1164.0196,613.78756 -1.3876,-15.01717 c -0.3551,-3.86778 -3.116,-7.09081 -6.8838,-8.03929 l -1.7564,-0.44215 0.2681,16.36345 c 3.8494,2.15352 7.1314,4.56599 9.7597,7.13516"
       style="fill:#f6f6f6;fill-opacity:1;fill-rule:nonzero;stroke:none;stroke-width:0.10147"
       id="path196-6" />
    <path
       d="m 1137.7508,586.20051 -8.306,-2.09091 -7.4714,13.36981 c 3.9667,0.22011 8.1551,0.81093 12.4869,1.79256 l 3.2905,-13.07146"
       style="fill:#f6f6f6;fill-opacity:1;fill-rule:nonzero;stroke:none;stroke-width:0.10147"
       id="path198-9" />
    <path
       d="m 1125.4086,583.09353 -1.7516,-0.44093 c -3.7677,-0.94848 -7.7256,0.58319 -9.8727,3.82107 l -8.3316,12.57153 c 3.5305,-1.01875 7.5623,-1.58904 11.9721,-1.66552 l 7.9838,-14.28615"
       style="fill:#f6f6f6;fill-opacity:1;fill-rule:nonzero;stroke:none;stroke-width:0.10147"
       id="path200-1" />
    <path
       d="m 1111.243,639.24004 c 3.3943,-5.75645 10.2399,-8.90397 17.0403,-7.19205 6.7995,1.71166 11.3395,7.72641 11.6025,14.40454 12.8146,-2.31037 23.3942,-10.61086 24.962,-16.8386 2.1602,-8.58146 -11.2221,-19.34906 -29.8974,-24.05031 -18.6725,-4.70053 -35.558,-1.55241 -37.7182,7.02905 -1.5675,6.22676 3.8205,18.5458 14.0108,26.64737"
       style="fill:#f6f6f6;fill-opacity:1;fill-rule:nonzero;stroke:none;stroke-width:0.10147"
       id="path202-3" />
    <path
       d="m 1126.8104,637.89885 c -5.048,-1.27077 -10.1728,1.79199 -11.4438,6.84089 -1.271,5.04892 1.7932,10.17205 6.8412,11.44282 5.0468,1.27047 10.1715,-1.79124 11.4425,-6.84016 1.271,-5.0489 -1.793,-10.17308 -6.8399,-11.44355"
       style="fill:#f6f6f6;fill-opacity:1;fill-rule:nonzero;stroke:none;stroke-width:0.10147"
       id="path204-0" />
  </g>
  <g
     inkscape:groupmode="layer"
     id="layer5"
     inkscape:label="05">
    <path
       d="m 1532.9819,179.53862 11.1663,16.66375 14.2474,-9.53835 c -4.9695,-9.279 -13.0236,-16.55261 -23.1431,-18.55568 -10.129,-2.00192 -20.3528,1.65687 -28.4681,8.34692 l 9.5406,14.24503 16.6569,-11.16167"
       style="opacity:1;fill:#f6f6f6;fill-opacity:1;fill-rule:nonzero;stroke:none;stroke-width:0.115785"
       id="path206" />
    <path
       d="m 1547.2861,248.91807 -15.6428,10.47273 -11.1522,-16.66144 -16.666,11.15704 -10.4777,-15.63792 c 3.814,15.36697 11.075,29.17895 21.8314,31.3059 10.7552,2.127 22.7274,-7.88029 32.1073,-20.63631"
       style="opacity:1;fill:#f6f6f6;fill-opacity:1;fill-rule:nonzero;stroke:none;stroke-width:0.115785"
       id="path208" />
    <path
       d="m 1510.8462,218.37865 16.6662,-11.1582 11.1567,16.66492 16.6662,-11.1605 6.2015,9.26973 c 0.6717,-2.05981 1.2516,-4.04898 1.6128,-5.86218 1.1718,-5.91198 0.9067,-12.20488 -0.5268,-18.23496 l -3.3647,-5.02737 -16.6567,11.16166 -11.1664,-16.66375 -16.6578,11.15933 -11.1619,-16.66145 -5.0285,3.36704 c -3.6137,5.03084 -6.2547,10.74484 -7.4276,16.65914 -0.3565,1.81316 -0.5787,3.87414 -0.7351,6.03584 l 9.2604,-6.2107 11.1617,16.66145"
       style="opacity:1;fill:#f6f6f6;fill-opacity:1;fill-rule:nonzero;stroke:none;stroke-width:0.115785"
       id="path210" />
    <path
       d="m 1505.3729,246.06165 16.6616,-11.1605 11.157,16.66029 16.6659,-11.15703 1.6258,2.42106 c 2.9977,-4.75528 5.5912,-9.67151 7.6093,-14.34574 l -5.3088,-7.9278 -16.6614,11.15935 -11.1569,-16.66143 -16.6615,11.16165 -11.1581,-16.66607 -7.9314,5.30873 c 0.091,5.08991 0.6148,10.6221 1.577,16.16589 l 2.4235,-1.62332 11.158,16.66492"
       style="opacity:1;fill:#f6f6f6;fill-opacity:1;fill-rule:nonzero;stroke:none;stroke-width:0.115785"
       id="path212" />
    <path
       d="m 1596.7736,248.48156 4.0072,9.7294 18.3683,-1.97412 c 2.0574,-0.22001 3.7525,-1.70552 4.2457,-3.7144 0.4921,-2.01003 -0.3277,-4.11037 -2.0493,-5.25663 l -17.7974,-11.85522 c -1.2192,3.42378 -4.1345,7.42297 -7.6672,11.2902 0.3347,0.56617 0.6368,1.15901 0.8927,1.78077"
       style="opacity:1;fill:#f6f6f6;fill-opacity:1;fill-rule:nonzero;stroke:none;stroke-width:0.115785"
       id="path214" />
    <path
       d="m 1592.6471,250.18128 c -0.016,-0.0347 -0.043,-0.0602 -0.058,-0.0949 -1.5897,1.55498 -3.2201,3.06252 -4.8282,4.43804 -7.2609,6.21532 -17.1976,12.85675 -23.3042,12.85907 -0.9644,0 -1.7437,-0.18065 -2.4429,-0.42031 -1.2795,-0.43652 -2.1896,-1.137 -2.7477,-1.78888 -0.8835,-1.03279 -1.2945,-2.21497 -1.4032,-3.47935 l -0.057,0.0405 c -0.7745,0.55575 -3.4491,3.07872 -4.1219,3.65648 -3.0671,2.63178 -7.7321,4.20301 -14.3133,3.67385 -1.7471,-0.1505 -3.4516,1.22502 -3.6043,3.0683 -0.1435,1.84329 1.2295,3.45619 3.0729,3.60439 2.9989,0.23967 5.7348,0.0394 8.1883,-0.44692 -4.9845,10.00613 -6.5454,20.65602 -6.6414,21.32525 -0.2571,1.83054 1.02,3.52102 2.8505,3.77922 1.8133,0.29178 3.5211,-1.01196 3.7793,-2.84368 0.021,-0.13778 1.2909,-8.69428 4.9903,-17.11069 1.5179,-3.45501 3.447,-6.87529 5.8703,-9.69119 -2.2461,8.22305 -1.768,17.00185 1.5168,24.96902 1.6037,3.90076 5.369,6.25584 9.3346,6.25584 1.2772,0 2.5808,-0.24662 3.8359,-0.76303 l 12.726,-5.24042 c 5.9443,-2.44998 10.673,-7.15896 13.1438,-13.09178 2.472,-5.93397 2.4849,-12.60898 0.041,-18.55337 l -5.8263,-14.14544"
       style="opacity:1;fill:#f6f6f6;fill-opacity:1;fill-rule:nonzero;stroke:none;stroke-width:0.115785"
       id="path216" />
    <path
       d="m 1562.6574,262.27386 c 0.3754,0.43765 0.99,0.64723 1.7994,0.64491 3.8269,0 12.0556,-4.64181 20.4013,-11.78459 10.1242,-8.65837 16.592,-17.70813 14.4476,-20.20908 -0.3738,-0.43883 -0.984,-0.6484 -1.7992,-0.6484 -3.8232,0 -12.0509,4.64646 -20.4014,11.7869 -10.1196,8.65839 -16.5871,17.70582 -14.4477,20.21026"
       style="opacity:1;fill:#f6f6f6;fill-opacity:1;fill-rule:nonzero;stroke:none;stroke-width:0.115785"
       id="path218" />
  </g>
  <g
     inkscape:groupmode="layer"
     id="layer4"
     inkscape:label="04">
    <path
       d="m 332.41999,210.92378 c 1.5727,0.28409 3.01766,0.83588 4.39939,1.49792 l 1.76911,-9.7937 c 0.26948,-1.4918 -0.72133,-2.91947 -2.21314,-3.18895 l -12.60557,-2.27704 c -1.49183,-0.26949 -2.92048,0.72113 -3.18995,2.21294 l -1.24477,6.89094 c 2.31899,1.15307 4.38305,2.77563 5.97966,4.86231 2.3245,-0.55555 4.73574,-0.63244 7.10527,-0.20442"
       style="opacity:1;fill:#f6f6f6;fill-opacity:1;fill-rule:nonzero;stroke:none;stroke-width:0.10147"
       id="path220" />
    <path
       d="m 294.75996,201.09048 c 0.52325,0.0945 1.02033,0.25961 1.52764,0.39656 l 1.13708,-6.2948 c 0.26948,-1.49181 -0.72131,-2.91947 -2.21312,-3.18895 L 282.603,189.7257 c -1.49183,-0.26948 -2.91948,0.72132 -3.18896,2.21313 l -2.84361,15.74199 c 4.47966,-5.1971 11.26169,-7.84179 18.18954,-6.59036"
       style="opacity:1;fill:#f6f6f6;fill-opacity:1;fill-rule:nonzero;stroke:none;stroke-width:0.10147"
       id="path222" />
    <path
       d="m 266.54996,229.02975 c 12.31599,2.22474 17.76633,20.89716 16.78376,34.54494 8.34335,2.67435 13.51507,8.71572 12.37601,15.0215 -0.16577,0.91765 -0.472,1.77384 -0.87051,2.5814 2.06527,-0.71889 3.92476,-2.02246 5.34911,-3.7769 1.5696,1.63121 3.61408,2.79139 5.96164,3.21545 5.463,0.98682 10.76119,-2.31983 12.80163,-7.61622 8.39254,0.47254 16.11876,-5.07025 18.90355,-13.49982 5.61351,0.13653 10.71274,-4.06085 11.80527,-10.109 1.19949,-6.64027 -2.88419,-12.93982 -9.12405,-14.06698 -0.18073,-0.0326 -0.35796,-0.0163 -0.53834,-0.0394 0.51671,-1.08523 0.9485,-2.23117 1.17378,-3.47835 1.28788,-7.12956 -3.09646,-13.89381 -9.79566,-15.10394 -3.1374,-0.56673 -6.20148,0.22435 -8.73222,1.91607 -1.23699,-4.08912 -4.45259,-7.32821 -8.74032,-8.10274 -4.00715,-0.72385 -7.90789,0.88022 -10.51739,3.86412 -1.88869,-3.82635 -5.32046,-6.72504 -9.6701,-7.51075 -6.81702,-1.23142 -13.38302,3.10004 -15.6512,9.87415 -0.80525,-0.2857 -1.60689,-0.56867 -2.46861,-0.72433 -9.20853,-1.66341 -18.1044,4.93738 -19.87513,14.74006 -0.04,0.22166 -0.0434,0.43966 -0.073,0.66115 3.43563,-2.07165 7.13631,-3.07049 10.9018,-2.3903"
       style="opacity:1;fill:#f6f6f6;fill-opacity:1;fill-rule:nonzero;stroke:none;stroke-width:0.10147"
       id="path224" />
    <path
       d="m 254.67851,259.4667 c 1.24118,0.22421 2.06588,1.41256 1.84132,2.65574 -0.22457,1.24318 -1.41291,2.0679 -2.65409,1.84369 -1.24519,-0.22493 -2.0699,-1.41328 -1.84533,-2.65646 0.22456,-1.24318 1.41291,-2.0679 2.6581,-1.84297 z m 12.34793,2.23051 c 1.24319,0.22457 2.06888,1.4131 1.84431,2.65628 -0.22457,1.24318 -1.41389,2.06772 -2.65708,1.84315 -1.24317,-0.22457 -2.06788,-1.41291 -1.84332,-2.65609 0.22457,-1.24318 1.41292,-2.06791 2.65609,-1.84334 z m -27.98648,13.73265 c 1.58069,0.28553 3.11545,0.39162 4.56171,0.35383 -0.73292,0.91214 -1.25388,2.01515 -1.47628,3.24636 -0.71212,3.94223 1.90683,7.71593 5.84806,8.42787 0.63008,0.11382 1.25519,0.14107 1.8649,0.0935 0.17431,2.89387 2.3698,5.42696 5.47127,5.9872 3.02658,0.54672 5.90586,-0.97378 7.1386,-3.51141 0.2516,0.0743 0.50931,0.13743 0.77293,0.18505 3.94223,0.71211 7.71593,-1.90684 8.42804,-5.84906 0.22709,-1.25716 0.11297,-2.4976 -0.27178,-3.62708 1.42277,0.60037 3.00686,1.0783 4.71137,1.3862 6.9618,1.25757 13.1593,-0.78847 13.84238,-4.56993 0.68344,-3.78348 -4.40675,-7.86746 -11.36855,-9.12503 -0.66703,-0.12049 -1.31364,-0.18272 -1.96164,-0.24307 0.15347,-0.59816 0.36362,-1.16238 0.47545,-1.78147 2.02939,-11.23457 -2.32999,-29.92438 -11.57047,-31.59356 -9.2385,-1.66883 -19.86119,14.31465 -21.89058,25.54921 -0.11184,0.6191 -0.11127,1.22138 -0.17588,1.83559 -0.62815,-0.17027 -1.25767,-0.33846 -1.92571,-0.45913 -6.96281,-1.25775 -13.15912,0.78746 -13.84256,4.57093 -0.68308,3.78146 4.40592,7.86628 11.36873,9.12403"
       style="opacity:1;fill:#f6f6f6;fill-opacity:1;fill-rule:nonzero;stroke:none;stroke-width:0.10147"
       id="path226" />
    <path
       d="m 1619.7299,382.29462 c 2.1406,-0.80464 4.3203,-1.18663 6.5032,-1.38685 l -5.0102,-13.3285 c -0.7631,-2.03024 -3.0276,-3.05725 -5.0577,-2.29414 l -17.1554,6.44884 c -2.0305,0.76325 -3.0587,3.028 -2.2955,5.05825 l 3.5252,9.37806 c 3.6945,-0.28446 7.4202,0.19478 10.9119,1.58707 2.4481,-2.38742 5.3538,-4.25052 8.5785,-5.46273"
       style="fill:#f6f6f6;fill-opacity:1;fill-rule:nonzero;stroke:none;stroke-width:0.145178"
       id="path220-4" />
    <path
       d="m 1566.2545,397.83806 c 0.7122,-0.26774 1.4442,-0.42957 2.1677,-0.6334 l -3.2203,-8.56676 c -0.7632,-2.03027 -3.0278,-3.05721 -5.0579,-2.2941 l -17.1593,6.4503 c -2.0304,0.76325 -3.0572,3.02743 -2.2941,5.05769 l 8.0533,21.42373 c 1.691,-9.66999 8.0823,-17.89336 17.5106,-21.43748"
       style="fill:#f6f6f6;fill-opacity:1;fill-rule:nonzero;stroke:none;stroke-width:0.145178"
       id="path222-0" />
    <path
       d="m 1552.0935,452.8512 c 16.7612,-6.30067 37.1526,12.63941 45.956,30.12549 12.2107,-2.83435 22.995,0.79375 26.2208,9.37544 0.4696,1.24886 0.7214,2.52526 0.8244,3.80953 2.0096,-2.39792 3.3379,-5.36328 3.8005,-8.56312 3.1246,0.85254 6.487,0.77817 9.682,-0.42283 7.4348,-2.79476 11.5179,-10.74285 10.1396,-18.74579 10.6564,-5.57534 16.0821,-18.0514 13.32,-30.44914 6.9957,-3.9496 10.1814,-12.8461 7.0873,-21.07721 -3.3971,-9.03697 -13.0343,-13.7802 -21.5264,-10.58798 -0.2458,0.0924 -0.4516,0.24253 -0.6902,0.34646 -0.1613,-1.71216 -0.4714,-3.43657 -1.1094,-5.1339 -3.6474,-9.70284 -13.9946,-14.79644 -23.1119,-11.36922 -4.2695,1.60494 -7.4535,4.82428 -9.3214,8.75864 -4.519,-4.11587 -10.8451,-5.73628 -16.6801,-3.54282 -5.4535,2.04999 -9.0691,6.88173 -10.0857,12.4612 -5.1268,-3.31512 -11.4684,-4.35889 -17.3882,-2.13361 -9.2774,3.48744 -14.1663,13.62439 -11.984,23.60968 -1.1986,0.23962 -2.391,0.48004 -3.5637,0.92086 -12.5321,4.71087 -18.6186,19.34457 -13.6037,32.68529 0.113,0.30168 0.2698,0.57165 0.3943,0.8661 2.7011,-5.06493 6.5144,-9.00631 11.6389,-10.93264"
       style="fill:#f6f6f6;fill-opacity:1;fill-rule:nonzero;stroke:none;stroke-width:0.145178"
       id="path224-0" />
    <path
       d="m 1559.8351,498.94854 c 1.6891,-0.63498 3.574,0.21988 4.21,1.91175 0.636,1.69191 -0.2191,3.57667 -1.9082,4.21165 -1.6944,0.63694 -3.5792,-0.21793 -4.2151,-1.90984 -0.636,-1.69188 0.2189,-3.57661 1.9133,-4.21356 z m 16.8048,-6.31703 c 1.6917,-0.63594 3.578,0.21841 4.2139,1.91028 0.636,1.69191 -0.2203,3.57717 -1.9122,4.21311 -1.692,0.63604 -3.5765,-0.21883 -4.2127,-1.91074 -0.6359,-1.69189 0.2189,-3.57662 1.911,-4.21265 z m -24.3068,37.39727 c 2.1511,-0.80866 4.1143,-1.80405 5.8632,-2.91125 -0.2313,1.65808 -0.063,3.39523 0.5675,5.07081 2.0167,5.36511 8.002,8.07989 13.3658,6.06359 0.8575,-0.32235 1.6452,-0.74727 2.3594,-1.253 2.3369,3.42709 6.8918,4.92845 11.1127,3.34184 4.1189,-1.54836 6.5405,-5.52801 6.1937,-9.54958 0.3635,-0.0933 0.7264,-0.20475 1.0852,-0.33961 5.365,-2.01676 8.08,-8.002 6.0632,-13.36711 -0.6431,-1.71091 -1.6933,-3.15094 -2.9944,-4.25623 2.1882,-0.30611 4.4847,-0.88087 6.8044,-1.75282 9.4744,-3.56149 15.5872,-10.62082 13.6526,-15.7671 -1.9356,-5.14906 -11.1843,-6.43229 -20.6587,-2.87079 -0.9078,0.34122 -1.7478,0.73907 -2.5881,1.14025 -0.2511,-0.84703 -0.4058,-1.69467 -0.7224,-2.53719 -5.7475,-15.28947 -24.8115,-35.0511 -37.3871,-30.32385 -12.5729,4.72624 -13.8985,32.15245 -8.1511,47.4419 0.3167,0.84253 0.7594,1.58188 1.1303,2.38391 -0.8966,0.25155 -1.7932,0.50667 -2.7023,0.8484 -9.476,3.5621 -15.5876,10.61937 -13.6521,15.76842 1.9345,5.14628 11.1822,6.43157 20.6582,2.86948"
       style="fill:#f6f6f6;fill-opacity:1;fill-rule:nonzero;stroke:none;stroke-width:0.145178"
       id="path226-1" />
  </g>
  <g
     inkscape:groupmode="layer"
     id="layer3"
     inkscape:label="03"
     style="display:inline">
    <path
       d="m 126.36925,103.75345 c -1.29891,-6.74727 -5.53,-15.422942 -7.13685,-18.230898 -0.18204,-0.30623 -0.48232,-0.526543 -0.83108,-0.604806 -0.0851,-0.01618 -0.17013,-0.02457 -0.25433,-0.02457 -0.27137,0 -0.53507,0.08333 -0.75026,0.24328 l -5.66952,4.192796 c -0.32324,0.236482 -0.50868,0.609061 -0.51208,1.001198 -0.006,0.393845 0.17949,0.768982 0.49591,1.008004 2.66251,2.020275 6.31769,7.276371 8.65612,11.020036 1.49286,0.2688 2.91939,0.57248 4.19704,0.91272 l 1.80505,0.48232"
       style="opacity:1;fill:#f6f6f6;fill-opacity:1;fill-rule:nonzero;stroke:none;stroke-width:0.0850639"
       id="path228" />
    <path
       d="m 111.643,108.8258 c 2.03219,0 5.98849,0.18799 9.00061,0.655 0.46868,-1.46225 1.42226,-2.70758 2.67355,-3.54547 -7.39714,-1.85524 -19.78754,-2.52129 -19.81986,-2.52129 -6.944625,0 -9.76619,5.7214 -9.152897,11.32541 0.610763,5.5989 4.289788,9.05674 11.378157,9.05674 0.0357,0 0.0681,0 0.10032,0 2.4073,-0.004 11.56783,-2.78329 18.23004,-6.21901 -1.38995,-0.69498 -2.50429,-1.85525 -3.14227,-3.27752 -3.41105,1.32275 -7.75782,2.37924 -8.95126,2.44473 -3.43487,0.18714 -5.7282,-1.22151 -5.95361,-3.28175 -0.24074,-2.20997 1.64938,-4.63684 5.63716,-4.63684"
       style="opacity:1;fill:#f6f6f6;fill-opacity:1;fill-rule:nonzero;stroke:none;stroke-width:0.0850639"
       id="path230" />
    <path
       d="m 99.49843,137.75941 c 10.5105,5.85495 27.17961,-1.37973 41.41673,-12.70342 -4.15706,-1.30233 -9.08736,-3.2452 -12.93054,-5.3148 l -0.91785,-0.49422 -0.91784,0.49422 c -6.38659,3.43913 -15.77934,6.53121 -19.62846,6.90804 l -0.12335,0.48741 0.11397,-0.48655 c -0.25008,0.0238 -0.47805,0.0366 -0.67881,0.0375 h -0.10972 c -8.252047,0 -13.446042,-4.24045 -14.251603,-11.63335 -0.455941,-4.16302 0.667751,-8.09553 3.082707,-10.78865 2.194668,-2.44813 5.287591,-3.74195 8.943636,-3.74195 0.0739,0 6.29301,0.31983 12.69321,1.18408 -1.7438,-2.637831 -4.50158,-6.192654 -6.49546,-7.706783 -1.16453,-0.881262 -1.84334,-2.273759 -1.82038,-3.697724 0.0127,-1.445242 0.71455,-2.814762 1.86631,-3.660297 l 5.66524,-4.189407 c 0.78343,-0.58098 1.75827,-0.900821 2.74077,-0.900821 0.30282,0 0.60649,0.02973 0.98417,0.106334 1.23683,0.277308 2.3197,1.06159 3.00192,2.20656 1.02331,1.790588 2.68375,4.901375 4.19109,8.498731 2.88367,-5.776693 6.20455,-10.822679 8.12529,-13.549835 0.83533,-1.177279 2.14021,-1.955606 3.63392,-2.139341 0.18291,-0.0179 0.36239,-0.02802 0.54442,-0.02802 1.26915,0 2.48216,0.461895 3.43233,1.306579 l 7.46606,6.695372 c 1.19345,1.06161 1.82972,2.649745 1.69617,4.265961 -0.13696,1.585585 -1.03098,3.040182 -2.4039,3.907833 -2.75012,1.705531 -6.03784,5.275655 -8.77689,8.618668 5.59635,-0.6652 10.52921,-0.91784 10.59469,-0.91784 3.65605,0 6.74898,1.29383 8.94362,3.74196 0.27305,0.30453 0.5274,0.62693 0.76727,0.96208 1.07947,-1.52604 2.02622,-3.01041 2.81732,-4.42928 C 173.27943,82.647494 169.261,55.254391 151.11178,45.14029 132.95915,35.025349 107.54887,46.021554 97.433084,64.173326 87.32154,82.325107 81.345813,127.64372 99.49843,137.75952"
       style="opacity:1;fill:#f6f6f6;fill-opacity:1;fill-rule:nonzero;stroke:none;stroke-width:0.0850639"
       id="path232" />
    <path
       d="m 147.05679,89.983312 c 0.47635,-0.300284 0.78938,-0.798755 0.83873,-1.358477 0.0449,-0.559722 -0.17353,-1.110931 -0.59036,-1.482659 l -7.47711,-6.701339 c -0.3292,-0.295166 -0.75961,-0.453388 -1.20025,-0.453388 -0.0656,0 -0.12673,0.0031 -0.19224,0.0091 -0.50272,0.06209 -0.96207,0.330055 -1.25895,0.748575 -2.0058,2.844524 -6.16542,9.089925 -9.23453,15.949465 0.7171,2.187842 1.25469,4.424171 1.53116,6.601811 l 0.0962,-0.0255 c 1.63323,-0.43553 3.50974,-0.80981 5.45515,-1.12879 3.24518,-4.399507 7.53751,-9.37234 12.03229,-12.159029"
       style="opacity:1;fill:#f6f6f6;fill-opacity:1;fill-rule:nonzero;stroke:none;stroke-width:0.0850639"
       id="path234" />
    <path
       d="m 150.63626,103.41404 c -0.0323,0 -12.42186,0.66605 -19.81901,2.52129 1.25042,0.83789 2.20399,2.08322 2.67269,3.54547 3.01211,-0.46701 6.9693,-0.655 9.00061,-0.655 3.9878,0 5.87876,2.42687 5.63719,4.63684 -0.22542,2.06024 -2.51788,3.46889 -5.95276,3.28175 -1.1943,-0.0656 -5.54106,-1.12198 -8.95128,-2.44473 -0.63799,1.42227 -1.75317,2.58254 -3.1431,3.27752 6.66218,3.43572 15.82272,6.21391 18.23001,6.21901 0.0324,0 0.0646,0 0.10124,0 7.08752,0 10.76738,-3.45784 11.37729,-9.05674 0.61332,-5.60401 -2.20826,-11.32541 -9.15288,-11.32541"
       style="opacity:1;fill:#f6f6f6;fill-opacity:1;fill-rule:nonzero;stroke:none;stroke-width:0.0850639"
       id="path236" />
  </g>
  <g
     inkscape:groupmode="layer"
     id="layer2"
     inkscape:label="02"
     style="display:inline">
    <path
       d="m 105.10331,550.30903 c 16.92408,8.57706 11.82103,19.1062 18.3423,23.33519 1.10022,0.71308 2.1573,1.18706 3.16295,1.45703 5.90114,1.58421 10.07841,-3.82733 11.36693,-8.62705 1.50765,-5.61597 -0.81555,-10.56619 -5.61818,-13.85189 -3.43779,-2.34992 -6.97807,-3.84872 -10.40098,-4.76763 -6.36698,-1.70926 -12.31148,-1.40204 -16.33024,-0.79255 -0.74191,0.11238 -1.32681,0.69161 -1.44544,1.43337 -0.11981,0.74142 0.25416,1.47424 0.92266,1.81353"
       style="opacity:1;fill:#f6f6f6;fill-opacity:1;fill-rule:nonzero;stroke:none;stroke-width:0.112691"
       id="path238" />
    <path
       d="m 104.96989,542.73914 c 4.31314,-0.65413 10.95752,-1.03018 18.1201,0.89267 4.22287,1.13366 8.1705,2.94486 11.7342,5.38224 6.53975,4.47312 9.29877,11.42472 7.37417,18.59381 -1.96667,7.32581 -8.49448,13.92187 -16.72316,11.71517 -1.48019,-0.39735 -2.96021,-1.07354 -4.40673,-2.00912 -3.75424,-2.43602 -4.94587,-6.09884 -5.99682,-9.32948 -1.48087,-4.54555 -3.00851,-9.24719 -11.9433,-13.77405 -2.37787,-1.20426 -3.689697,-3.78036 -3.26559,-6.41199 0.42622,-2.6264 2.47493,-4.65973 5.10713,-5.05925 z m 25.18173,82.85123 c -0.43506,1.6206 -2.09921,2.58217 -3.71979,2.14712 -1.62167,-0.43535 -2.58377,-2.10196 -2.14871,-3.72256 0.43447,-1.61839 2.10189,-2.57909 3.72357,-2.14375 1.62057,0.43506 2.5794,2.10081 2.14493,3.71919 z M 59.832656,555.18885 c -0.191826,1.05816 0.116753,2.14678 0.829122,2.95293 0.712959,0.80396 1.753455,1.23964 2.830656,1.18228 37.358616,-2.03325 46.414636,22.03517 48.361476,37.91884 0.2273,1.85674 0.3676,3.60728 0.43406,5.18515 -2.53408,2.35922 -4.49351,5.39431 -5.45712,8.98375 -2.73949,10.20456 3.31155,20.69673 13.51393,23.43563 6.96012,1.8685 13.99338,-0.41587 18.66577,-5.25694 l 5.61323,-0.0111 10.10864,-0.0248 c 0.84059,-0.002 1.61147,-0.45418 2.02357,-1.18131 0.41619,-0.72838 0.40933,-1.62281 -0.0207,-2.34385 l -6.75286,-11.38882 c 6.14045,-1.58127 12.46478,-4.04082 14.78991,-5.40834 4.71959,-2.77365 6.2923,-8.8459 3.52183,-13.56147 -1.5505,-2.64016 -5.79413,-6.8516 -11.42289,-3.42942 -5.02535,3.05561 -14.01509,11.41655 -18.71163,17.58012 -0.96781,1.26638 -1.76502,2.44085 -2.30046,3.44873 -0.71712,1.35002 -0.98804,2.41141 -0.633,3.01429 0.61426,1.04118 0.26279,2.38083 -0.77665,2.99323 -1.04475,0.61447 -2.37809,0.2612 -2.99185,-0.77754 -1.04732,-1.77933 -0.67467,-4.10625 0.50526,-6.65868 4.2927,-9.28818 19.88845,-21.36785 22.65026,-22.99156 2.77116,-1.62817 5.90683,-2.52608 8.87849,-2.16587 0.8871,-1.97179 1.64949,-4.02021 2.22451,-6.16214 6.71255,-25.00418 -11.40489,-51.5974 -40.46438,-59.39863 -29.060554,-7.80152 -58.060669,6.14264 -64.773222,31.14683 -0.260628,0.97083 -0.472945,1.94414 -0.645931,2.91865 z m 59.378454,83.88146 c -2.07008,-0.55573 -3.94207,-1.45382 -5.70784,-2.48676 -3.76724,-2.20499 -6.79927,-5.33624 -8.82012,-9.06998 -2.12932,-3.94254 -3.14253,-8.46988 -2.74808,-13.11642 0.11583,-1.37023 0.30416,-2.7455 0.67289,-4.11902 1.02409,-3.81472 3.01049,-7.08059 5.52795,-9.79084 -0.0149,-0.01 -0.0323,-0.0274 -0.0429,-0.036 -3.29819,-2.58311 -8.06159,-2.00315 -10.644148,1.29285 -2.291563,2.92492 -2.078632,7.00405 0.30364,9.69134 -0.05114,0.009 -0.126847,0.0114 -0.177468,0.0178 -4.766765,0.67939 -8.074456,5.09455 -7.393317,9.8548 0.450183,3.14753 2.54709,5.62873 5.281027,6.7757 -0.09739,0.0976 -0.221612,0.21705 -0.304374,0.30801 -3.678106,4.05202 -3.366327,10.31863 0.686846,13.99238 3.423916,3.10576 8.411154,3.33501 12.102594,0.89792 -0.69738,4.91873 2.34687,9.68213 7.26979,10.95939 5.29794,1.37546 10.70489,-1.80161 12.08293,-7.10001 0.37874,-1.45835 0.73741,-4.22892 0.95981,-7.47826 -2.94402,0.37879 -6.00621,0.22414 -9.0493,-0.5928 z m -13.58502,-92.00818 c 4.01876,-0.60949 9.96326,-0.91671 16.33024,0.79255 3.42291,0.91891 6.96319,2.41771 10.40098,4.76763 4.80263,3.2857 7.12583,8.23592 5.61818,13.85189 -1.28852,4.79972 -5.46579,10.21126 -11.36693,8.62705 -1.00565,-0.26997 -2.06273,-0.74395 -3.16295,-1.45703 -6.52127,-4.22899 -1.41822,-14.75813 -18.3423,-23.33519 -0.6685,-0.33929 -1.04235,-1.07207 -0.92266,-1.81353 0.11864,-0.74176 0.70353,-1.32099 1.44544,-1.43337"
       style="opacity:1;fill:#f6f6f6;fill-opacity:1;fill-rule:nonzero;stroke:none;stroke-width:0.112691"
       id="path240" />
    <path
       d="m 1551.948,624.73478 c 8.4011,-2.12888 9.8058,3.02781 13.3204,2.52559 0.5928,-0.0849 1.099,-0.2391 1.5262,-0.4481 2.5071,-1.22647 2.3203,-4.34353 1.3227,-6.38264 -1.1672,-2.38589 -3.4532,-3.3924 -6.093,-3.08148 -1.8889,0.22326 -3.5576,0.77027 -5.0118,1.48167 -2.705,1.32328 -4.659,3.21386 -5.8594,4.63029 -0.2217,0.26144 -0.2491,0.63645 -0.067,0.9274 0.1813,0.2912 0.5301,0.43118 0.8621,0.34727"
       style="display:inline;fill:#f6f6f6;fill-opacity:1;fill-rule:nonzero;stroke:none;stroke-width:0.0514747"
       id="path238-4" />
    <path
       d="m 1549.6292,622.169 c 1.2883,-1.52018 3.4627,-3.64459 6.5056,-5.13322 1.7941,-0.87766 3.6968,-1.43944 5.6554,-1.67039 3.5942,-0.42374 6.6312,1.14087 8.1211,4.18658 1.5226,3.1123 1.2559,7.34286 -2.2392,9.05387 -0.6289,0.30764 -1.3414,0.51924 -2.1202,0.6315 -2.0238,0.28863 -3.5337,-0.61446 -4.8655,-1.41102 -1.8745,-1.12012 -3.8121,-2.27992 -8.2469,-1.15559 -1.1801,0.2994 -2.4052,-0.19351 -3.0493,-1.22675 -0.6419,-1.03207 -0.5471,-2.34714 0.239,-3.27498 z m 33.5443,20.95966 c 0.3368,0.68849 0.053,1.51916 -0.6358,1.85597 -0.689,0.33704 -1.5205,0.0522 -1.8574,-0.6363 -0.3363,-0.68755 -0.051,-1.5189 0.6382,-1.85594 0.6885,-0.33681 1.5187,-0.0513 1.855,0.63627 z m -45.3442,-3.12169 c 0.2517,0.42186 0.6848,0.70395 1.172,0.76757 0.4868,0.0627 0.9758,-0.0997 1.3294,-0.44291 12.2497,-11.91674 22.5936,-6.35057 28.0328,-1.46736 0.6358,0.5709 1.2096,1.13138 1.7063,1.65458 -0.164,1.57299 0.073,3.20609 0.8188,4.73102 2.1208,4.33531 7.3541,6.13029 11.6885,4.00988 2.9569,-1.44655 4.6921,-4.34463 4.847,-7.41398 l 1.929,-1.68917 3.4723,-3.04362 c 0.2888,-0.25303 0.4183,-0.64018 0.3419,-1.01422 -0.075,-0.37569 -0.3463,-0.68153 -0.7109,-0.80063 l -5.744,-1.89292 c 1.639,-2.38798 3.0776,-5.1335 3.4674,-6.30237 0.7918,-2.37184 -0.49,-4.93433 -2.8595,-5.72577 -1.3264,-0.44331 -4.0517,-0.6189 -4.9618,2.24916 -0.8125,2.5607 -1.3967,8.13798 -1.1629,11.66983 0.047,0.72651 0.1253,1.37017 0.2436,1.87789 0.1585,0.68003 0.3839,1.12675 0.6871,1.22768 0.5241,0.17398 0.8053,0.74067 0.6314,1.26357 -0.1752,0.5252 -0.7402,0.80392 -1.2634,0.63063 -0.8947,-0.29805 -1.4651,-1.21095 -1.8253,-2.44386 -1.311,-4.4862 0.4307,-13.32704 0.8939,-14.71521 0.4651,-1.39251 1.2749,-2.64307 2.406,-3.41131 -0.2867,-0.94511 -0.6392,-1.87916 -1.0844,-2.78913 -5.1967,-10.62278 -19.418,-14.33742 -31.7636,-8.29785 -12.3461,6.03978 -18.1423,19.54707 -12.9455,30.16985 0.2017,0.41245 0.4209,0.81124 0.6539,1.19864 z m 45.6254,11.04683 c -0.8794,0.43023 -1.7935,0.68313 -2.7115,0.85772 -1.9588,0.37207 -3.9427,0.20454 -5.7594,-0.47399 -1.9167,-0.71784 -3.6249,-1.9721 -4.8842,-3.69005 -0.3715,-0.50645 -0.7196,-1.03641 -1.0051,-1.61994 -0.7928,-1.62065 -1.0896,-3.34129 -1.0367,-5.03012 -0.01,10e-4 -0.019,2.6e-4 -0.026,4.8e-4 -1.911,0.10107 -3.3766,1.73091 -3.276,3.64092 0.089,1.6949 1.3874,3.03515 3.0144,3.24494 -0.015,0.0183 -0.04,0.0421 -0.056,0.0594 -1.4369,1.66508 -1.2499,4.17805 0.4138,5.6122 1.1,0.94833 2.5668,1.17285 3.8523,0.74683 -0,0.0628 -0.011,0.14125 -0.012,0.19741 -0.049,2.4992 1.9393,4.56278 4.4376,4.61047 2.1112,0.0411 3.8968,-1.3774 4.4358,-3.32468 1.2367,1.90259 3.7149,2.6283 5.793,1.58989 2.2367,-1.11721 3.1441,-3.83429 2.0276,-6.07195 -0.3074,-0.61573 -1.0158,-1.67715 -1.9149,-2.86247 -0.8997,1.01433 -2.0002,1.88051 -3.2931,2.51297 z m -32.3016,-27.59369 c 1.2004,-1.41643 3.1544,-3.30701 5.8594,-4.63029 1.4542,-0.7114 3.1229,-1.25841 5.0118,-1.48167 2.6398,-0.31092 4.9258,0.69559 6.093,3.08148 0.9976,2.03911 1.1844,5.15617 -1.3227,6.38264 -0.4272,0.209 -0.9334,0.36323 -1.5262,0.4481 -3.5146,0.50222 -4.9193,-4.65447 -13.3204,-2.52559 -0.332,0.0839 -0.6807,-0.0561 -0.8622,-0.34727 -0.1818,-0.29096 -0.1544,-0.66596 0.067,-0.9274"
       style="display:inline;fill:#f6f6f6;fill-opacity:1;fill-rule:nonzero;stroke:none;stroke-width:0.0514747"
       id="path240-5" />
  </g>
  <g
     inkscape:groupmode="layer"
     id="layer1"
     inkscape:label="01"
     style="display:inline">
    <path
       d="m 1700.358,107.99404 c 2.415,0.72137 3.7862,3.26057 3.0648,5.67566 -0.7214,2.41508 -3.2608,3.78726 -5.6759,3.06589 -2.4151,-0.72136 -3.787,-3.26183 -3.0656,-5.67692 0.7214,-2.41508 3.2616,-3.78599 5.6767,-3.06463 z m 2.4371,-4.86883 8.4795,-4.577346 c 0.4576,-0.245604 1.0293,-0.07486 1.2765,0.381274 l 4.574,8.476352 c 0.1829,0.33419 0.1439,0.74511 -0.098,1.04133 -0.2392,0.2939 -0.6335,0.41545 -0.999,0.30626 l -13.0525,-3.89869 c -0.3647,-0.10892 -0.6266,-0.42649 -0.6666,-0.80379 -0.038,-0.37979 0.1537,-0.74517 0.4863,-0.92539 z m 16.7662,15.36497 c -0.7213,2.41509 -3.2628,3.78666 -5.6779,3.06526 -2.4149,-0.7213 -3.786,-3.26151 -3.0646,-5.6766 0.7214,-2.41509 3.2607,-3.78625 5.6756,-3.06495 2.4152,0.7214 3.7883,3.2612 3.0669,5.67629 z m -27.0871,9.6898 c 2.7137,7.96833 0.041,15.01194 -1.4743,18.03281 -0.1622,0.32644 -0.1225,0.71424 0.1012,1.00134 0.2209,0.28519 0.5912,0.41801 0.9452,0.33836 5.7507,-1.28457 8.8174,-7.54855 8.8174,-7.54855 3.4301,2.49973 7.7041,3.27228 10.1488,3.50897 0.3545,0.036 0.6958,-0.13211 0.8861,-0.4353 0.1896,-0.2992 0.1906,-0.68333 0.01,-0.98879 -1.4585,-2.39903 -2.5425,-5.48893 -3.3048,-8.14068 15.5186,1.15122 30.4963,-9.11313 35.3397,-25.3284 0.6278,-2.10202 1.04,-4.21552 1.2828,-6.31606 l -3.7934,-7.036977 -3.6448,-6.747954 -6.7499,3.644191 -6.8559,3.701497 -3.7015,-6.855993 -3.6467,-6.748526 -6.7497,3.643208 -6.8541,3.703081 -3.7039,-6.855612 -3.6445,-6.748937 -6.7495,3.643238 -7.0254,3.786405 c -0.9512,1.894236 -1.7686,3.893054 -2.3985,6.001874 -4.4865,15.020375 1.1038,30.539705 12.7676,38.746745"
       style="opacity:1;fill:#f6f6f6;fill-opacity:1;fill-rule:nonzero;stroke:none;stroke-width:0.10147"
       id="path248" />
    <path
       d="m 1685.4278,72.789693 13.6041,-7.347244 7.35,13.606104 13.6041,-7.347272 7.3479,13.605503 13.6072,-7.346328 7.3458,13.604845 9.3144,-5.029014 c 2.5982,-20.31706 -7.9795,-43.428063 -27.3469,-49.212978 -19.3663,-5.784599 -40.8866,7.738934 -49.8565,26.150711 l 5.0299,9.315673"
       style="opacity:1;fill:#f6f6f6;fill-opacity:1;fill-rule:nonzero;stroke:none;stroke-width:0.10147"
       id="path250" />
  </g>
</svg>
